%TF.GenerationSoftware,Altium Limited,Altium Designer,21.4.1 (30)*%
G04 Layer_Color=8388736*
%FSLAX25Y25*%
%MOIN*%
%TF.SameCoordinates,82249629-20A9-4E05-8B69-989CC10A5609*%
%TF.FilePolarity,Positive*%
%TF.FileFunction,Other,Top_3D_Body*%
%TF.Part,Single*%
G01*
G75*
%TA.AperFunction,NonConductor*%
%ADD44C,0.00787*%
%ADD65C,0.00394*%
%ADD66C,0.00200*%
D44*
X210598Y92598D02*
Y117402D01*
Y92598D02*
X235402D01*
Y117402D01*
X210598D02*
X235402D01*
X70335Y24398D02*
Y125185D01*
Y24398D02*
X141594D01*
Y125185D01*
X70335D02*
X141594D01*
X126012Y166705D02*
X164988D01*
Y144067D02*
Y166705D01*
X126012Y144067D02*
X164988D01*
X126012D02*
Y166705D01*
X46433D02*
X75567D01*
Y144067D02*
Y166705D01*
X46433Y144067D02*
X75567D01*
X46433D02*
Y166705D01*
X210598Y27984D02*
Y52787D01*
Y27984D02*
X235402D01*
Y52787D01*
X210598D02*
X235402D01*
X170248Y187638D02*
X238752D01*
Y142362D02*
Y187638D01*
X170248Y142362D02*
X238752D01*
X170248D02*
Y187638D01*
X199425Y50736D02*
Y57035D01*
X202575D01*
Y50736D02*
Y57035D01*
X199425Y50736D02*
X202575D01*
X81012Y144067D02*
Y166705D01*
Y144067D02*
X119988D01*
Y166705D01*
X81012D02*
X119988D01*
X187618Y74768D02*
Y85004D01*
X177382D02*
X187618D01*
X177382Y74768D02*
Y85004D01*
Y74768D02*
X187618D01*
X12012Y144000D02*
Y166638D01*
Y144000D02*
X41146D01*
Y166638D01*
X12012D02*
X41146D01*
X55925Y61106D02*
X59075D01*
Y67405D01*
X55925D02*
X59075D01*
X55925Y61106D02*
Y67405D01*
X15425Y61106D02*
X18575D01*
Y67405D01*
X15425D02*
X18575D01*
X15425Y61106D02*
Y67405D01*
D65*
X168933Y1150D02*
X198067D01*
D66*
X179169Y-727D02*
X179855D01*
X180083Y-650D01*
X180159Y-574D01*
X180236Y-422D01*
Y-193D01*
X180159Y-41D01*
X180083Y35D01*
X179855Y111D01*
X179169D01*
Y-1488D01*
X181736Y-269D02*
X181660Y-117D01*
X181508Y35D01*
X181356Y111D01*
X181051D01*
X180898Y35D01*
X180746Y-117D01*
X180670Y-269D01*
X180594Y-498D01*
Y-879D01*
X180670Y-1107D01*
X180746Y-1260D01*
X180898Y-1412D01*
X181051Y-1488D01*
X181356D01*
X181508Y-1412D01*
X181660Y-1260D01*
X181736Y-1107D01*
X182186Y111D02*
Y-1488D01*
Y111D02*
X182871D01*
X183100Y35D01*
X183176Y-41D01*
X183252Y-193D01*
Y-346D01*
X183176Y-498D01*
X183100Y-574D01*
X182871Y-650D01*
X182186D02*
X182871D01*
X183100Y-727D01*
X183176Y-803D01*
X183252Y-955D01*
Y-1183D01*
X183176Y-1336D01*
X183100Y-1412D01*
X182871Y-1488D01*
X182186D01*
X185857Y111D02*
X184867D01*
Y-1488D01*
X185857D01*
X184867Y-650D02*
X185477D01*
X187038Y111D02*
Y-1488D01*
Y-650D02*
X186886Y-498D01*
X186733Y-422D01*
X186505D01*
X186353Y-498D01*
X186200Y-650D01*
X186124Y-879D01*
Y-1031D01*
X186200Y-1260D01*
X186353Y-1412D01*
X186505Y-1488D01*
X186733D01*
X186886Y-1412D01*
X187038Y-1260D01*
X188379Y-422D02*
Y-1641D01*
X188303Y-1869D01*
X188226Y-1945D01*
X188074Y-2021D01*
X187846D01*
X187693Y-1945D01*
X188379Y-650D02*
X188226Y-498D01*
X188074Y-422D01*
X187846D01*
X187693Y-498D01*
X187541Y-650D01*
X187465Y-879D01*
Y-1031D01*
X187541Y-1260D01*
X187693Y-1412D01*
X187846Y-1488D01*
X188074D01*
X188226Y-1412D01*
X188379Y-1260D01*
X188805Y-879D02*
X189719D01*
Y-727D01*
X189643Y-574D01*
X189567Y-498D01*
X189415Y-422D01*
X189186D01*
X189034Y-498D01*
X188882Y-650D01*
X188805Y-879D01*
Y-1031D01*
X188882Y-1260D01*
X189034Y-1412D01*
X189186Y-1488D01*
X189415D01*
X189567Y-1412D01*
X189719Y-1260D01*
%TF.MD5,8b71df387e28dfe5bea39f73d6e747c1*%
M02*
