%TF.GenerationSoftware,Altium Limited,Altium Designer,21.4.1 (30)*%
G04 Layer_Color=255*
%FSLAX25Y25*%
%MOIN*%
%TF.SameCoordinates,82249629-20A9-4E05-8B69-989CC10A5609*%
%TF.FilePolarity,Positive*%
%TF.FileFunction,Pads,Bot*%
%TF.Part,Single*%
G01*
G75*
%TA.AperFunction,ComponentPad*%
%ADD31R,0.05512X0.05512*%
%ADD32C,0.05512*%
%ADD33R,0.06102X0.06102*%
%ADD34C,0.06102*%
%ADD35O,0.04134X0.04921*%
%ADD36C,0.06299*%
%ADD37R,0.06299X0.06299*%
%ADD40O,0.05512X0.08268*%
D31*
X135657Y157453D02*
D03*
X229106Y157717D02*
D03*
X90657Y157453D02*
D03*
D32*
X145500D02*
D03*
X155343D02*
D03*
X219264Y157717D02*
D03*
X209421D02*
D03*
X199579D02*
D03*
X189736D02*
D03*
X179894D02*
D03*
X110343Y157453D02*
D03*
X100500D02*
D03*
D33*
X56079D02*
D03*
X21657Y157386D02*
D03*
D34*
X65921Y157453D02*
D03*
X31500Y157386D02*
D03*
D35*
X192260Y18413D02*
D03*
X174740D02*
D03*
D36*
X79000Y11386D02*
D03*
X89000D02*
D03*
X109000D02*
D03*
X129000D02*
D03*
X139000D02*
D03*
X119000D02*
D03*
X99000D02*
D03*
X69000D02*
D03*
X59000D02*
D03*
D37*
X149000D02*
D03*
D40*
X167063Y6386D02*
D03*
X199937D02*
D03*
%TF.MD5,a013bd6b8a75e3570c41c9c66c58d7e4*%
M02*
