%TF.GenerationSoftware,Altium Limited,Altium Designer,21.4.1 (30)*%
G04 Layer_Color=8388736*
%FSLAX25Y25*%
%MOIN*%
%TF.SameCoordinates,82249629-20A9-4E05-8B69-989CC10A5609*%
%TF.FilePolarity,Negative*%
%TF.FileFunction,Soldermask,Top*%
%TF.Part,Single*%
G01*
G75*
%TA.AperFunction,SMDPad,CuDef*%
%ADD10R,0.05512X0.08268*%
%TA.AperFunction,BGAPad,CuDef*%
%ADD11R,0.05236X0.05236*%
%TA.AperFunction,SMDPad,CuDef*%
%ADD12R,0.03543X0.07874*%
%ADD13R,0.07874X0.03543*%
%ADD21R,0.03197X0.03183*%
%ADD24R,0.01968X0.01378*%
%TA.AperFunction,ComponentPad*%
%ADD31R,0.05512X0.05512*%
%ADD32C,0.05512*%
%ADD33R,0.06102X0.06102*%
%ADD34C,0.06102*%
%TA.AperFunction,SMDPad,CuDef*%
%ADD45R,0.03162X0.05524*%
%ADD46R,0.03753X0.04147*%
%ADD47R,0.13398X0.08280*%
%ADD48R,0.04343X0.08280*%
%ADD49R,0.04934X0.04540*%
%TA.AperFunction,ConnectorPad*%
%ADD50R,0.07887X0.08280*%
%ADD51R,0.02375X0.06115*%
%TA.AperFunction,SMDPad,CuDef*%
%ADD52R,0.06706X0.04343*%
%ADD53R,0.04068X0.03280*%
%ADD54R,0.04147X0.03753*%
%ADD55R,0.03950X0.04343*%
%ADD56R,0.04343X0.03950*%
%ADD57R,0.04540X0.04934*%
%TA.AperFunction,ComponentPad*%
%ADD58O,0.04934X0.05721*%
%ADD59C,0.07099*%
%ADD60R,0.07099X0.07099*%
%TA.AperFunction,ViaPad*%
%ADD61C,0.02800*%
%ADD62C,0.15800*%
G36*
X173050Y10523D02*
X173102Y10513D01*
X173151Y10496D01*
X173198Y10473D01*
X173242Y10444D01*
X173282Y10409D01*
X173316Y10370D01*
X173345Y10326D01*
X173368Y10279D01*
X173385Y10230D01*
X173396Y10178D01*
X173399Y10126D01*
Y2646D01*
X173396Y2593D01*
X173385Y2542D01*
X173368Y2492D01*
X173345Y2445D01*
X173316Y2402D01*
X173282Y2362D01*
X173242Y2328D01*
X173198Y2299D01*
X173151Y2275D01*
X173102Y2258D01*
X173050Y2248D01*
X172998Y2245D01*
X165973D01*
X165920Y2248D01*
X165869Y2258D01*
X165819Y2275D01*
X165096Y2575D01*
X165096Y2575D01*
X165080Y2583D01*
X165049Y2598D01*
X165005Y2627D01*
X164966Y2662D01*
X164966Y2662D01*
X164412Y3216D01*
X164412Y3216D01*
X164393Y3237D01*
X164377Y3255D01*
X164358Y3284D01*
X164348Y3299D01*
X164336Y3322D01*
X164325Y3346D01*
X164325Y3346D01*
X164025Y4069D01*
X164008Y4119D01*
X163998Y4170D01*
X163995Y4223D01*
Y4614D01*
Y8945D01*
Y9180D01*
X163998Y9232D01*
X164008Y9284D01*
X164025Y9333D01*
X164205Y9767D01*
X164228Y9814D01*
X164258Y9858D01*
X164292Y9897D01*
X164624Y10229D01*
X164624Y10230D01*
X164664Y10264D01*
X164707Y10293D01*
X164754Y10317D01*
X164754Y10317D01*
X165188Y10496D01*
X165188Y10496D01*
X165221Y10507D01*
X165238Y10513D01*
X165289Y10523D01*
X165342Y10527D01*
X165342D01*
D01*
X172998D01*
X173050Y10523D01*
D02*
G37*
G36*
X201711D02*
X201762Y10513D01*
X201779Y10507D01*
X201812Y10496D01*
X201812Y10496D01*
X202245Y10317D01*
X202246Y10317D01*
X202293Y10293D01*
X202336Y10264D01*
X202376Y10230D01*
X202376Y10229D01*
X202708Y9897D01*
X202708Y9897D01*
X202743Y9858D01*
X202772Y9814D01*
X202795Y9767D01*
X202795Y9767D01*
X202975Y9333D01*
X202975Y9333D01*
X202986Y9300D01*
X202992Y9284D01*
X203002Y9232D01*
X203005Y9180D01*
Y9180D01*
D01*
Y8945D01*
Y4614D01*
Y4223D01*
D01*
Y4223D01*
X203002Y4170D01*
X202992Y4119D01*
X202986Y4102D01*
X202975Y4069D01*
X202975Y4069D01*
X202675Y3346D01*
X202675Y3346D01*
X202652Y3299D01*
X202623Y3255D01*
X202588Y3216D01*
X202034Y2662D01*
X202034Y2662D01*
X201995Y2627D01*
X201951Y2598D01*
X201920Y2583D01*
X201904Y2575D01*
X201904Y2575D01*
X201181Y2275D01*
X201131Y2258D01*
X201080Y2248D01*
X201027Y2245D01*
X194002D01*
X193950Y2248D01*
X193898Y2258D01*
X193849Y2275D01*
X193801Y2299D01*
X193758Y2328D01*
X193719Y2362D01*
X193684Y2402D01*
X193655Y2445D01*
X193632Y2492D01*
X193615Y2542D01*
X193605Y2593D01*
X193601Y2646D01*
Y10126D01*
X193605Y10178D01*
X193615Y10230D01*
X193632Y10279D01*
X193655Y10326D01*
X193684Y10370D01*
X193719Y10409D01*
X193758Y10444D01*
X193801Y10473D01*
X193849Y10496D01*
X193898Y10513D01*
X193950Y10523D01*
X194002Y10527D01*
X201658D01*
D01*
X201658D01*
X201711Y10523D01*
D02*
G37*
D10*
X214142Y87087D02*
D03*
Y122913D02*
D03*
X231858Y87087D02*
D03*
Y122913D02*
D03*
X214142Y22472D02*
D03*
Y58299D02*
D03*
X231858Y22472D02*
D03*
Y58299D02*
D03*
D11*
X109252Y58748D02*
D03*
X102028D02*
D03*
X94803D02*
D03*
X109252Y65972D02*
D03*
X102028D02*
D03*
X94803D02*
D03*
X109252Y73197D02*
D03*
X102028D02*
D03*
X94803D02*
D03*
D12*
X128465Y26563D02*
D03*
X123465D02*
D03*
X118465D02*
D03*
X113465D02*
D03*
X108465D02*
D03*
X103465D02*
D03*
X98465D02*
D03*
X93465D02*
D03*
X88465D02*
D03*
X83465D02*
D03*
D13*
X139429Y95500D02*
D03*
Y90500D02*
D03*
Y85500D02*
D03*
Y80500D02*
D03*
Y75500D02*
D03*
Y70500D02*
D03*
Y65500D02*
D03*
Y60500D02*
D03*
Y55500D02*
D03*
Y50500D02*
D03*
Y45500D02*
D03*
Y40500D02*
D03*
Y35500D02*
D03*
Y30500D02*
D03*
X72500D02*
D03*
Y35500D02*
D03*
Y40500D02*
D03*
Y45500D02*
D03*
Y50500D02*
D03*
Y55500D02*
D03*
Y60500D02*
D03*
Y65500D02*
D03*
Y70500D02*
D03*
Y75500D02*
D03*
Y80500D02*
D03*
Y85500D02*
D03*
Y90500D02*
D03*
Y95500D02*
D03*
D21*
X201000Y51516D02*
D03*
Y56255D02*
D03*
X57500Y66625D02*
D03*
Y61886D02*
D03*
X17000Y66625D02*
D03*
Y61886D02*
D03*
D24*
X178465Y78606D02*
D03*
Y76047D02*
D03*
X186535D02*
D03*
Y78606D02*
D03*
Y81165D02*
D03*
Y83724D02*
D03*
X178465D02*
D03*
Y81165D02*
D03*
D31*
X135657Y157453D02*
D03*
X229106Y157717D02*
D03*
X90657Y157453D02*
D03*
D32*
X145500D02*
D03*
X155343D02*
D03*
X219264Y157717D02*
D03*
X209421D02*
D03*
X199579D02*
D03*
X189736D02*
D03*
X179894D02*
D03*
X110343Y157453D02*
D03*
X100500D02*
D03*
D33*
X56079D02*
D03*
X21657Y157386D02*
D03*
D34*
X65921Y157453D02*
D03*
X31500Y157386D02*
D03*
D45*
X162500Y130909D02*
D03*
X167500D02*
D03*
X172500D02*
D03*
X177500D02*
D03*
X182500D02*
D03*
X187500D02*
D03*
X192500D02*
D03*
X197500D02*
D03*
Y108862D02*
D03*
X192500D02*
D03*
X187500D02*
D03*
X182500D02*
D03*
X177500D02*
D03*
X172500D02*
D03*
X167500D02*
D03*
X162500D02*
D03*
D46*
X14059Y38000D02*
D03*
X8941D02*
D03*
Y28000D02*
D03*
X14059D02*
D03*
X170500Y76386D02*
D03*
X165382D02*
D03*
X165441Y84386D02*
D03*
X170559D02*
D03*
X167559Y101386D02*
D03*
X162441D02*
D03*
D47*
X37500Y77500D02*
D03*
D48*
X46555Y54272D02*
D03*
X37500D02*
D03*
X28445D02*
D03*
D49*
X153500Y128146D02*
D03*
Y133854D02*
D03*
X197500Y86740D02*
D03*
Y81031D02*
D03*
X61000Y100031D02*
D03*
Y105740D02*
D03*
X50500Y100031D02*
D03*
Y105740D02*
D03*
D50*
X188028Y6386D02*
D03*
X178972D02*
D03*
D51*
X178382Y17429D02*
D03*
X188618D02*
D03*
X180941D02*
D03*
X183500D02*
D03*
X186059D02*
D03*
D52*
X172854Y47390D02*
D03*
Y60382D02*
D03*
X192146D02*
D03*
Y47390D02*
D03*
D53*
X178500Y26496D02*
D03*
Y35276D02*
D03*
D54*
X49000Y29327D02*
D03*
Y34445D02*
D03*
X55500D02*
D03*
Y29327D02*
D03*
X26000Y100827D02*
D03*
Y105945D02*
D03*
X153500Y116827D02*
D03*
Y121945D02*
D03*
X27000Y122445D02*
D03*
Y117327D02*
D03*
D55*
X32760Y29449D02*
D03*
X40240D02*
D03*
X36500Y37323D02*
D03*
D56*
X33563Y108126D02*
D03*
Y100646D02*
D03*
X41437Y104386D02*
D03*
X34063Y123626D02*
D03*
Y116146D02*
D03*
X41937Y119886D02*
D03*
D57*
X167854Y138386D02*
D03*
X162146D02*
D03*
D58*
X192260Y18413D02*
D03*
X174740D02*
D03*
D59*
X79000Y11386D02*
D03*
X89000D02*
D03*
X109000D02*
D03*
X129000D02*
D03*
X139000D02*
D03*
X119000D02*
D03*
X99000D02*
D03*
X69000D02*
D03*
X59000D02*
D03*
D60*
X149000D02*
D03*
D61*
X37500Y45500D02*
D03*
X60000Y114000D02*
D03*
X82000Y95000D02*
D03*
X169691Y88694D02*
D03*
X191114Y52000D02*
D03*
X46555Y41441D02*
D03*
X63308Y46500D02*
D03*
X43572Y110657D02*
D03*
X46941Y119694D02*
D03*
X21827Y121000D02*
D03*
X151000Y62500D02*
D03*
X179500Y59500D02*
D03*
X178500Y70000D02*
D03*
X189500Y87000D02*
D03*
X192000Y75000D02*
D03*
X167000Y150000D02*
D03*
X145500Y131500D02*
D03*
X14000Y43500D02*
D03*
X30500Y66000D02*
D03*
X40500Y69500D02*
D03*
Y24000D02*
D03*
X181500Y96500D02*
D03*
X220700Y72286D02*
D03*
X207600Y75386D02*
D03*
X187500Y95486D02*
D03*
X183500Y139986D02*
D03*
X88000Y85000D02*
D03*
X214000Y31000D02*
D03*
X128500Y38516D02*
D03*
X112200Y85386D02*
D03*
X147500Y44386D02*
D03*
X170500Y145286D02*
D03*
X54800D02*
D03*
X82800Y51213D02*
D03*
X147827Y86213D02*
D03*
X181500Y47386D02*
D03*
X131651Y49181D02*
D03*
X20500Y49586D02*
D03*
X80000Y57286D02*
D03*
D62*
X8000Y8000D02*
D03*
X253500D02*
D03*
Y166500D02*
D03*
%TF.MD5,ba298218f8c99cf7b5b87a4823836c31*%
M02*
