%TF.GenerationSoftware,Altium Limited,Altium Designer,21.4.1 (30)*%
G04 Layer_Color=16711935*
%FSLAX25Y25*%
%MOIN*%
%TF.SameCoordinates,82249629-20A9-4E05-8B69-989CC10A5609*%
%TF.FilePolarity,Positive*%
%TF.FileFunction,Other,Mechanical_13*%
%TF.Part,Single*%
G01*
G75*
%TA.AperFunction,NonConductor*%
%ADD65C,0.00394*%
G36*
X163500Y106886D02*
X161500D01*
Y110936D01*
X163500D01*
Y106886D01*
D02*
G37*
G36*
X168500D02*
X166500D01*
Y110936D01*
X168500D01*
Y106886D01*
D02*
G37*
G36*
X173500D02*
X171500D01*
Y110936D01*
X173500D01*
Y106886D01*
D02*
G37*
G36*
X178500D02*
X176500D01*
Y110936D01*
X178500D01*
Y106886D01*
D02*
G37*
G36*
X163500Y128886D02*
X161500D01*
Y133136D01*
X163500D01*
Y128886D01*
D02*
G37*
G36*
X168500D02*
X166500D01*
Y132886D01*
X168500D01*
Y128886D01*
D02*
G37*
G36*
X173500D02*
X171500D01*
Y132886D01*
X173500D01*
Y128886D01*
D02*
G37*
G36*
X178500D02*
X176500D01*
Y132886D01*
X178500D01*
Y128886D01*
D02*
G37*
G36*
X183500Y106886D02*
X181500D01*
Y110936D01*
X183500D01*
Y106886D01*
D02*
G37*
G36*
X188500D02*
X186500D01*
Y110936D01*
X188500D01*
Y106886D01*
D02*
G37*
G36*
X193500D02*
X191500D01*
Y110936D01*
X193500D01*
Y106886D01*
D02*
G37*
G36*
X198500D02*
X196500D01*
Y110936D01*
X198500D01*
Y106886D01*
D02*
G37*
G36*
X183500Y128886D02*
X181500D01*
Y132886D01*
X183500D01*
Y128886D01*
D02*
G37*
G36*
X188500D02*
X186500D01*
Y132886D01*
X188500D01*
Y128886D01*
D02*
G37*
G36*
X193500D02*
X191500D01*
Y132886D01*
X193500D01*
Y128886D01*
D02*
G37*
G36*
X198500D02*
X196500D01*
Y132886D01*
X198500D01*
Y128886D01*
D02*
G37*
D65*
X8055Y36130D02*
X14945D01*
X8055Y39870D02*
X14945D01*
Y36130D02*
Y39870D01*
X8055Y36130D02*
Y39870D01*
Y29870D02*
X14945D01*
X8055Y26130D02*
X14945D01*
X8055D02*
Y29870D01*
X14945Y26130D02*
Y29870D01*
X50689Y58602D02*
Y73169D01*
X24311Y58602D02*
Y73169D01*
X50689D01*
X24311Y58602D02*
X50689D01*
X151728Y127654D02*
Y134346D01*
X155272Y127654D02*
Y134346D01*
X151728Y127654D02*
X155272D01*
X151728Y134346D02*
X155272D01*
X168933Y18079D02*
X198067D01*
X168933Y-1646D02*
Y18079D01*
X198067Y-1646D02*
Y18079D01*
X198559Y-4008D02*
X199248Y-3516D01*
X197083Y-1646D02*
X198559Y-4008D01*
X198067Y-1646D02*
X199248Y-3516D01*
X167752D02*
X168933Y-1646D01*
X168441Y-4008D02*
X169917Y-1646D01*
X167752Y-3516D02*
X168441Y-4008D01*
X170744D02*
X196256D01*
Y-1646D01*
X197083D01*
X170744Y-4008D02*
Y-1646D01*
X169917D02*
X170744D01*
X54000Y6386D02*
X154000D01*
X54000Y16386D02*
X154000D01*
Y6386D02*
Y16386D01*
X54000Y6386D02*
Y16386D01*
X172657Y44043D02*
Y63728D01*
X192343D01*
X172657Y44043D02*
X192343D01*
Y63728D01*
X164496Y74516D02*
X171386D01*
X164496Y78256D02*
X171386D01*
Y74516D02*
Y78256D01*
X164496Y74516D02*
Y78256D01*
X164555Y86256D02*
X171445D01*
X164555Y82516D02*
X171445D01*
X164555D02*
Y86256D01*
X171445Y82516D02*
Y86256D01*
X176039Y34232D02*
X180961D01*
Y27539D02*
Y34232D01*
X176039Y27539D02*
X180961D01*
X176039D02*
Y34232D01*
X47130Y28441D02*
X50870D01*
X47130Y35331D02*
X50870D01*
X47130Y28441D02*
Y35331D01*
X50870Y28441D02*
Y35331D01*
X53630D02*
X57370D01*
X53630Y28441D02*
X57370D01*
Y35331D01*
X53630Y28441D02*
Y35331D01*
X24130Y99941D02*
X27870D01*
X24130Y106831D02*
X27870D01*
X24130Y99941D02*
Y106831D01*
X27870Y99941D02*
Y106831D01*
X151630Y115941D02*
Y122831D01*
X155370Y115941D02*
Y122831D01*
X151630Y115941D02*
X155370D01*
X151630Y122831D02*
X155370D01*
X168445Y99516D02*
Y103256D01*
X161555Y99516D02*
Y103256D01*
Y99516D02*
X168445D01*
X161555Y103256D02*
X168445D01*
X25130Y123331D02*
X28870D01*
X25130Y116441D02*
X28870D01*
Y123331D01*
X25130Y116441D02*
Y123331D01*
X30752Y30827D02*
X42248D01*
X30752Y35945D02*
X42248D01*
X30752Y30827D02*
Y35945D01*
X42248Y30827D02*
Y35945D01*
X34941Y98638D02*
Y110134D01*
X40059Y98638D02*
Y110134D01*
X34941D02*
X40059D01*
X34941Y98638D02*
X40059D01*
X35441Y114138D02*
Y125634D01*
X40559Y114138D02*
Y125634D01*
X35441D02*
X40559D01*
X35441Y114138D02*
X40559D01*
X199272Y80539D02*
Y87232D01*
X195728Y80539D02*
Y87232D01*
X199272D01*
X195728Y80539D02*
X199272D01*
X168346Y136614D02*
Y140157D01*
X161654Y136614D02*
Y140157D01*
Y136614D02*
X168346D01*
X161654Y140157D02*
X168346D01*
X59228Y99539D02*
Y106232D01*
X62772Y99539D02*
Y106232D01*
X59228Y99539D02*
X62772D01*
X59228Y106232D02*
X62772D01*
X48728Y99539D02*
Y106232D01*
X52272Y99539D02*
Y106232D01*
X48728Y99539D02*
X52272D01*
X48728Y106232D02*
X52272D01*
%TF.MD5,591549949f65adc2291559663b6a6721*%
M02*
