%TF.GenerationSoftware,Altium Limited,Altium Designer,21.4.1 (30)*%
G04 Layer_Color=16711935*
%FSLAX25Y25*%
%MOIN*%
%TF.SameCoordinates,82249629-20A9-4E05-8B69-989CC10A5609*%
%TF.FilePolarity,Negative*%
%TF.FileFunction,Soldermask,Bot*%
%TF.Part,Single*%
G01*
G75*
%TA.AperFunction,ComponentPad*%
%ADD31R,0.05512X0.05512*%
%ADD32C,0.05512*%
%ADD33R,0.06102X0.06102*%
%ADD34C,0.06102*%
%ADD58O,0.04934X0.05721*%
%ADD59C,0.07099*%
%ADD60R,0.07099X0.07099*%
%TA.AperFunction,ViaPad*%
%ADD61C,0.02800*%
%ADD62C,0.15800*%
%TA.AperFunction,ComponentPad*%
%ADD63O,0.06312X0.09068*%
D31*
X135657Y157453D02*
D03*
X229106Y157717D02*
D03*
X90657Y157453D02*
D03*
D32*
X145500D02*
D03*
X155343D02*
D03*
X219264Y157717D02*
D03*
X209421D02*
D03*
X199579D02*
D03*
X189736D02*
D03*
X179894D02*
D03*
X110343Y157453D02*
D03*
X100500D02*
D03*
D33*
X56079D02*
D03*
X21657Y157386D02*
D03*
D34*
X65921Y157453D02*
D03*
X31500Y157386D02*
D03*
D58*
X192260Y18413D02*
D03*
X174740D02*
D03*
D59*
X79000Y11386D02*
D03*
X89000D02*
D03*
X109000D02*
D03*
X129000D02*
D03*
X139000D02*
D03*
X119000D02*
D03*
X99000D02*
D03*
X69000D02*
D03*
X59000D02*
D03*
D60*
X149000D02*
D03*
D61*
X37500Y45500D02*
D03*
X60000Y114000D02*
D03*
X82000Y95000D02*
D03*
X169691Y88694D02*
D03*
X191114Y52000D02*
D03*
X46555Y41441D02*
D03*
X63308Y46500D02*
D03*
X43572Y110657D02*
D03*
X46941Y119694D02*
D03*
X21827Y121000D02*
D03*
X151000Y62500D02*
D03*
X179500Y59500D02*
D03*
X178500Y70000D02*
D03*
X189500Y87000D02*
D03*
X192000Y75000D02*
D03*
X167000Y150000D02*
D03*
X145500Y131500D02*
D03*
X14000Y43500D02*
D03*
X30500Y66000D02*
D03*
X40500Y69500D02*
D03*
Y24000D02*
D03*
X181500Y96500D02*
D03*
X220700Y72286D02*
D03*
X207600Y75386D02*
D03*
X187500Y95486D02*
D03*
X183500Y139986D02*
D03*
X88000Y85000D02*
D03*
X214000Y31000D02*
D03*
X128500Y38516D02*
D03*
X112200Y85386D02*
D03*
X147500Y44386D02*
D03*
X170500Y145286D02*
D03*
X54800D02*
D03*
X82800Y51213D02*
D03*
X147827Y86213D02*
D03*
X181500Y47386D02*
D03*
X131651Y49181D02*
D03*
X20500Y49586D02*
D03*
X80000Y57286D02*
D03*
D62*
X8000Y8000D02*
D03*
X253500D02*
D03*
Y166500D02*
D03*
D63*
X167063Y6386D02*
D03*
X199937D02*
D03*
%TF.MD5,ea583da5604640918ac75e599839a170*%
M02*
