%TF.GenerationSoftware,Altium Limited,Altium Designer,21.4.1 (30)*%
G04 Layer_Color=32896*
%FSLAX25Y25*%
%MOIN*%
%TF.SameCoordinates,82249629-20A9-4E05-8B69-989CC10A5609*%
%TF.FilePolarity,Positive*%
%TF.FileFunction,Other,Top_Component_Center*%
%TF.Part,Single*%
G01*
G75*
%TA.AperFunction,NonConductor*%
%ADD65C,0.00394*%
D65*
X223000Y103032D02*
Y106969D01*
X221032Y105000D02*
X224969D01*
X105965Y72823D02*
Y76760D01*
X103996Y74791D02*
X107933D01*
X143532Y155386D02*
X147469D01*
X145500Y153417D02*
Y157354D01*
X59032Y155386D02*
X62969D01*
X61000Y153417D02*
Y157354D01*
X223000Y38417D02*
Y42354D01*
X221032Y40386D02*
X224969D01*
X202532Y165000D02*
X206469D01*
X204500Y163032D02*
Y166969D01*
X201000Y51917D02*
Y55854D01*
X199032Y53886D02*
X202969D01*
X100500Y153417D02*
Y157354D01*
X98532Y155386D02*
X102469D01*
X182500Y77917D02*
Y81854D01*
X180532Y79886D02*
X184469D01*
X26579Y153350D02*
Y157287D01*
X24610Y155319D02*
X28547D01*
X55532Y64255D02*
X59469D01*
X57500Y62287D02*
Y66224D01*
X15032Y64255D02*
X18969D01*
X17000Y62287D02*
Y66224D01*
%TF.MD5,fc2b60126063e3db5728facae349fa8e*%
M02*
