%TF.GenerationSoftware,Altium Limited,Altium Designer,21.4.1 (30)*%
G04 Layer_Physical_Order=1*
G04 Layer_Color=255*
%FSLAX25Y25*%
%MOIN*%
%TF.SameCoordinates,82249629-20A9-4E05-8B69-989CC10A5609*%
%TF.FilePolarity,Positive*%
%TF.FileFunction,Copper,L1,Top,Signal*%
%TF.Part,Single*%
G01*
G75*
%TA.AperFunction,SMDPad,CuDef*%
%ADD10R,0.05512X0.08268*%
%TA.AperFunction,BGAPad,CuDef*%
%ADD11R,0.05236X0.05236*%
%TA.AperFunction,SMDPad,CuDef*%
%ADD12R,0.03543X0.07874*%
%ADD13R,0.07874X0.03543*%
%ADD14R,0.02362X0.04724*%
%ADD15R,0.02953X0.03347*%
%ADD16R,0.12598X0.07480*%
%ADD17R,0.03543X0.07480*%
%ADD18R,0.04134X0.03740*%
%TA.AperFunction,ConnectorPad*%
%ADD19R,0.07087X0.07480*%
%ADD20R,0.01575X0.05315*%
%TA.AperFunction,SMDPad,CuDef*%
%ADD21R,0.03197X0.03183*%
%ADD22R,0.05906X0.03543*%
%ADD23R,0.03268X0.02480*%
%ADD24R,0.01968X0.01378*%
%ADD25R,0.03347X0.02953*%
%ADD26R,0.03150X0.03543*%
%ADD27R,0.03543X0.03150*%
%ADD28R,0.03740X0.04134*%
%TA.AperFunction,Conductor*%
%ADD29C,0.01000*%
%ADD30C,0.02000*%
%TA.AperFunction,ComponentPad*%
%ADD31R,0.05512X0.05512*%
%ADD32C,0.05512*%
%ADD33R,0.06102X0.06102*%
%ADD34C,0.06102*%
%ADD35O,0.04134X0.04921*%
%ADD36C,0.06299*%
%ADD37R,0.06299X0.06299*%
%TA.AperFunction,ViaPad*%
%ADD38C,0.02000*%
%ADD39C,0.15000*%
G36*
X249134Y174407D02*
X249019Y173729D01*
X248082Y173102D01*
X246898Y171918D01*
X245967Y170526D01*
X245327Y168979D01*
X245000Y167337D01*
Y165663D01*
X245327Y164021D01*
X245967Y162474D01*
X246898Y161082D01*
X248082Y159898D01*
X249474Y158967D01*
X251021Y158327D01*
X252663Y158000D01*
X254337D01*
X255979Y158327D01*
X257526Y158967D01*
X258918Y159898D01*
X260102Y161082D01*
X261033Y162474D01*
X261500Y163602D01*
X262000Y163503D01*
Y10997D01*
X261500Y10898D01*
X261033Y12026D01*
X260102Y13418D01*
X258918Y14602D01*
X257526Y15533D01*
X255979Y16173D01*
X254337Y16500D01*
X252663D01*
X251021Y16173D01*
X249474Y15533D01*
X248082Y14602D01*
X246898Y13418D01*
X245967Y12026D01*
X245327Y10479D01*
X245000Y8837D01*
Y7163D01*
X245327Y5521D01*
X245967Y3974D01*
X246898Y2582D01*
X248082Y1398D01*
X249474Y467D01*
X249694Y376D01*
X249596Y-114D01*
X129697D01*
X129648Y386D01*
X130085Y473D01*
X130581Y804D01*
X137334Y7556D01*
X137398Y7519D01*
X138454Y7236D01*
X139546D01*
X140602Y7519D01*
X141548Y8065D01*
X142321Y8838D01*
X142867Y9784D01*
X143150Y10840D01*
Y11932D01*
X142998Y12500D01*
X144388Y13890D01*
X144850Y13699D01*
Y7236D01*
X153150D01*
Y15535D01*
X146687D01*
X146495Y15997D01*
X163734Y33236D01*
X175866D01*
Y33035D01*
X181134D01*
Y35026D01*
X190687Y44579D01*
X191374D01*
X191374Y44579D01*
X191374Y44579D01*
X191572Y44618D01*
X196098D01*
Y46122D01*
X197638D01*
X198418Y46277D01*
X199080Y46720D01*
X201285Y48925D01*
X203599D01*
Y53664D01*
Y55755D01*
X201000D01*
Y56755D01*
X203599D01*
Y58847D01*
X200777D01*
X200586Y59309D01*
X204681Y63404D01*
X205013Y63901D01*
X205129Y64486D01*
Y74917D01*
X205600Y74988D01*
X205905Y74253D01*
X206071Y74087D01*
Y50219D01*
X181596Y25745D01*
X181134Y25936D01*
Y28736D01*
X175866D01*
Y24256D01*
X176229D01*
Y21960D01*
X175814Y21682D01*
X175541Y21795D01*
X174740Y21901D01*
X173940Y21795D01*
X173194Y21486D01*
X172553Y20994D01*
X172061Y20354D01*
X171752Y19608D01*
X171647Y18807D01*
Y18020D01*
X171752Y17219D01*
X172061Y16473D01*
X172553Y15832D01*
X173194Y15341D01*
X173940Y15032D01*
X174740Y14926D01*
X175541Y15032D01*
X176094Y15261D01*
X176594Y14995D01*
Y13772D01*
X185559D01*
Y17429D01*
X186559D01*
Y13772D01*
X188118D01*
Y17429D01*
Y21087D01*
X186017D01*
X185826Y21549D01*
X215413Y51136D01*
X220114D01*
X220700Y51252D01*
X221196Y51584D01*
X221781Y52170D01*
X222113Y52666D01*
X222229Y53251D01*
Y70987D01*
X222395Y71153D01*
X222700Y71888D01*
Y72684D01*
X222395Y73419D01*
X221833Y73981D01*
X221098Y74286D01*
X220302D01*
X219567Y73981D01*
X219005Y73419D01*
X218700Y72684D01*
Y71888D01*
X219005Y71153D01*
X219171Y70987D01*
Y54195D01*
X217898D01*
Y63433D01*
X210386D01*
Y53165D01*
X212463D01*
X212655Y52703D01*
X209629Y49678D01*
X209129Y49885D01*
Y74087D01*
X209296Y74253D01*
X209600Y74988D01*
Y75784D01*
X209296Y76519D01*
X208733Y77081D01*
X207998Y77386D01*
X208069Y77856D01*
X211642D01*
X212227Y77973D01*
X212723Y78304D01*
X214723Y80304D01*
X215055Y80800D01*
X215171Y81386D01*
Y81953D01*
X217898D01*
Y92220D01*
X210829D01*
Y117780D01*
X217898D01*
Y128047D01*
X210829D01*
Y147119D01*
X217903Y154193D01*
X218769Y153961D01*
X219758D01*
X220713Y154217D01*
X221570Y154711D01*
X222269Y155410D01*
X222764Y156267D01*
X223020Y157222D01*
Y158211D01*
X222764Y159166D01*
X222269Y160023D01*
X221570Y160722D01*
X220713Y161216D01*
X219758Y161472D01*
X218769D01*
X217814Y161216D01*
X216958Y160722D01*
X216258Y160023D01*
X215764Y159166D01*
X215508Y158211D01*
Y157222D01*
X215740Y156356D01*
X208219Y148834D01*
X207887Y148338D01*
X207771Y147753D01*
Y132522D01*
X207271Y132371D01*
X206942Y132863D01*
X183424Y156380D01*
X183650Y157222D01*
Y158211D01*
X183394Y159166D01*
X182899Y160023D01*
X182200Y160722D01*
X181343Y161216D01*
X180388Y161472D01*
X179399D01*
X179102Y161393D01*
X171638Y168856D01*
X171845Y169356D01*
X185776D01*
X196055Y159078D01*
X195823Y158211D01*
Y157222D01*
X196079Y156267D01*
X196573Y155410D01*
X197273Y154711D01*
X198129Y154217D01*
X199084Y153961D01*
X200073D01*
X201028Y154217D01*
X201885Y154711D01*
X202584Y155410D01*
X203079Y156267D01*
X203335Y157222D01*
Y158211D01*
X203079Y159166D01*
X202584Y160023D01*
X201885Y160722D01*
X201028Y161216D01*
X200073Y161472D01*
X199084D01*
X198218Y161240D01*
X187491Y171967D01*
X186995Y172299D01*
X186410Y172415D01*
X74400D01*
X73815Y172299D01*
X73319Y171967D01*
X69419Y168067D01*
X69087Y167571D01*
X68971Y166986D01*
Y160786D01*
X68509Y160595D01*
X68409Y160695D01*
X67485Y161228D01*
X66454Y161504D01*
X65388D01*
X64358Y161228D01*
X63434Y160695D01*
X62679Y159940D01*
X62146Y159017D01*
X61870Y157986D01*
Y156920D01*
X62004Y156419D01*
X60592Y155007D01*
X60130Y155199D01*
Y161504D01*
X54912D01*
X50473Y165942D01*
X49812Y166384D01*
X49032Y166539D01*
X28772D01*
X27991Y166384D01*
X27330Y165942D01*
X22825Y161437D01*
X17606D01*
Y159425D01*
X9672D01*
X8891Y159270D01*
X8230Y158828D01*
X7058Y157656D01*
X6616Y156995D01*
X6461Y156214D01*
Y65886D01*
X6616Y65105D01*
X7058Y64444D01*
X11058Y60444D01*
X11720Y60002D01*
X12500Y59847D01*
X14401D01*
Y59294D01*
X14961D01*
Y54345D01*
X2058Y41442D01*
X1616Y40780D01*
X1461Y40000D01*
Y30000D01*
X1616Y29220D01*
X2058Y28558D01*
X4194Y26422D01*
X4856Y25980D01*
X5636Y25825D01*
X6465D01*
Y25327D01*
X11417D01*
X11417Y25327D01*
X11583D01*
Y25327D01*
X11917Y25327D01*
X16535D01*
Y30673D01*
X14634D01*
X14577Y30961D01*
X14245Y31457D01*
X13095Y32607D01*
X13287Y33069D01*
X17713D01*
X18298Y33186D01*
X18794Y33517D01*
X21581Y36304D01*
X21913Y36801D01*
X22029Y37386D01*
Y48287D01*
X22196Y48453D01*
X22500Y49188D01*
Y49984D01*
X22196Y50719D01*
X21633Y51281D01*
X20898Y51586D01*
X20102D01*
X19367Y51281D01*
X18804Y50719D01*
X18500Y49984D01*
Y49188D01*
X18804Y48453D01*
X18971Y48287D01*
Y38019D01*
X17079Y36128D01*
X16535D01*
Y37500D01*
X14059D01*
Y38000D01*
X13559D01*
Y40673D01*
X11583D01*
Y40673D01*
X11417D01*
Y40673D01*
X7710D01*
X7519Y41135D01*
X18442Y52058D01*
X18884Y52720D01*
X19039Y53500D01*
Y56309D01*
X19501Y56501D01*
X23172Y52830D01*
X23834Y52388D01*
X24614Y52232D01*
X24614Y52232D01*
X25673D01*
Y49531D01*
X26915D01*
Y37114D01*
X26103Y36302D01*
X25772Y35806D01*
X25655Y35221D01*
Y21701D01*
X25772Y21116D01*
X26103Y20620D01*
X45919Y804D01*
X46415Y473D01*
X46852Y386D01*
X46803Y-114D01*
X11904D01*
X11806Y376D01*
X12026Y467D01*
X13418Y1398D01*
X14602Y2582D01*
X15533Y3974D01*
X16173Y5521D01*
X16500Y7163D01*
Y8837D01*
X16173Y10479D01*
X15533Y12026D01*
X14602Y13418D01*
X13418Y14602D01*
X12026Y15533D01*
X10479Y16173D01*
X8837Y16500D01*
X7163D01*
X5521Y16173D01*
X3974Y15533D01*
X2582Y14602D01*
X1398Y13418D01*
X771Y12481D01*
X93Y12366D01*
X0Y12436D01*
Y174500D01*
X249064D01*
X249134Y174407D01*
D02*
G37*
G36*
X176218Y158509D02*
X176138Y158211D01*
Y157222D01*
X176394Y156267D01*
X176580Y155945D01*
X175538Y154903D01*
X164413D01*
X163827Y154786D01*
X163331Y154455D01*
X161064Y152188D01*
X160733Y151691D01*
X160616Y151106D01*
Y141453D01*
X159275D01*
Y135319D01*
X160971D01*
Y134272D01*
X160319D01*
Y129950D01*
X159819Y129540D01*
X159713Y129561D01*
X156567D01*
Y130984D01*
Y133354D01*
X150433D01*
Y130984D01*
Y125276D01*
X156567D01*
Y126502D01*
X159080D01*
X161608Y123974D01*
X161401Y123474D01*
X156173D01*
Y124421D01*
X150827D01*
Y119468D01*
X150827D01*
Y119303D01*
X150827D01*
Y114350D01*
X151971D01*
Y86862D01*
X149906Y84798D01*
X149523Y85080D01*
X149827Y85815D01*
Y86611D01*
X149523Y87346D01*
X148960Y87909D01*
X148225Y88213D01*
X147430D01*
X146695Y87909D01*
X146528Y87743D01*
X144366D01*
Y92728D01*
Y95000D01*
X134492D01*
Y92743D01*
X127327D01*
X126742Y92626D01*
X126246Y92295D01*
X121419Y87467D01*
X121087Y86971D01*
X120971Y86386D01*
Y53686D01*
X121087Y53101D01*
X121419Y52604D01*
X122971Y51052D01*
Y35729D01*
X123087Y35144D01*
X123419Y34648D01*
X124004Y34062D01*
X124501Y33730D01*
X125086Y33614D01*
X127081D01*
X128733Y31962D01*
X128541Y31500D01*
X83965D01*
Y26563D01*
X83465D01*
Y26063D01*
X80693D01*
Y21626D01*
X80218Y21565D01*
X61484D01*
X57029Y26019D01*
Y26850D01*
X58173D01*
Y31803D01*
X58173D01*
Y31968D01*
X58173D01*
Y36921D01*
X52827D01*
Y35974D01*
X51673D01*
Y36921D01*
X48375D01*
X48326Y37421D01*
X48585Y37473D01*
X49081Y37804D01*
X65961Y54684D01*
X67563D01*
Y52728D01*
Y47029D01*
X65404D01*
X65146Y47287D01*
X65003Y47633D01*
X64441Y48195D01*
X63705Y48500D01*
X62910D01*
X62175Y48195D01*
X61612Y47633D01*
X61308Y46898D01*
Y46102D01*
X61612Y45367D01*
X62175Y44804D01*
X62910Y44500D01*
X63608D01*
X63689Y44419D01*
X64185Y44087D01*
X64771Y43971D01*
X67563D01*
Y37728D01*
Y32728D01*
Y27728D01*
X77437D01*
Y32728D01*
Y38971D01*
X82200D01*
X82785Y39087D01*
X83281Y39419D01*
X87981Y44119D01*
X88313Y44615D01*
X88429Y45200D01*
Y53386D01*
X88313Y53971D01*
X87981Y54467D01*
X84081Y58367D01*
X83585Y58699D01*
X83000Y58815D01*
X81299D01*
X81133Y58981D01*
X80398Y59286D01*
X79602D01*
X78867Y58981D01*
X78304Y58419D01*
X78000Y57684D01*
Y56888D01*
X78304Y56153D01*
X78867Y55590D01*
X79602Y55286D01*
X80398D01*
X81133Y55590D01*
X81299Y55756D01*
X82367D01*
X85371Y52752D01*
Y45834D01*
X81567Y42029D01*
X77437D01*
Y47728D01*
Y49684D01*
X81501D01*
X81667Y49518D01*
X82402Y49213D01*
X83198D01*
X83933Y49518D01*
X84496Y50080D01*
X84800Y50815D01*
Y51611D01*
X84496Y52346D01*
X83933Y52909D01*
X83198Y53213D01*
X82402D01*
X81667Y52909D01*
X81501Y52743D01*
X77437D01*
Y57728D01*
Y59684D01*
X78800D01*
X79385Y59800D01*
X79881Y60132D01*
X87581Y67832D01*
X87913Y68328D01*
X88029Y68913D01*
Y75952D01*
X95934Y83856D01*
X110901D01*
X111067Y83690D01*
X111802Y83386D01*
X112598D01*
X113333Y83690D01*
X113895Y84253D01*
X114200Y84988D01*
Y85784D01*
X113895Y86519D01*
X113333Y87081D01*
X112598Y87386D01*
X111802D01*
X111067Y87081D01*
X110901Y86915D01*
X95300D01*
X94715Y86799D01*
X94219Y86467D01*
X85419Y77667D01*
X85087Y77171D01*
X84971Y76586D01*
Y69547D01*
X78167Y62743D01*
X77437D01*
Y67728D01*
Y72728D01*
Y77728D01*
Y83471D01*
X86701D01*
X86867Y83305D01*
X87602Y83000D01*
X88398D01*
X89133Y83305D01*
X89696Y83867D01*
X90000Y84602D01*
Y85398D01*
X89696Y86133D01*
X89133Y86695D01*
X88398Y87000D01*
X87602D01*
X86867Y86695D01*
X86701Y86529D01*
X77437D01*
Y92728D01*
Y95000D01*
X72500D01*
Y95500D01*
X72000D01*
Y98272D01*
X68029D01*
Y101386D01*
Y132662D01*
X89064Y153697D01*
X94413D01*
Y158325D01*
X101935Y165847D01*
X133593D01*
X133828Y165406D01*
X133773Y165324D01*
X133618Y164543D01*
Y161209D01*
X131902D01*
Y153697D01*
X139413D01*
Y161209D01*
X137697D01*
Y163698D01*
X139845Y165847D01*
X168880D01*
X176218Y158509D01*
D02*
G37*
G36*
X52028Y158620D02*
Y154039D01*
X35814D01*
X35034Y153884D01*
X34372Y153442D01*
X12558Y131628D01*
X12116Y130966D01*
X11961Y130186D01*
Y76986D01*
X12116Y76205D01*
X12558Y75544D01*
X18424Y69678D01*
X18232Y69216D01*
X17500D01*
Y67125D01*
X19599D01*
Y67850D01*
X20061Y68041D01*
X28628Y59474D01*
X28437Y59012D01*
X25673D01*
Y56804D01*
X25173Y56596D01*
X19599Y62171D01*
Y64034D01*
Y66125D01*
X17000D01*
X14401D01*
Y63925D01*
X13345D01*
X10539Y66730D01*
Y155347D01*
X17606D01*
Y153335D01*
X25709D01*
Y158553D01*
X29616Y162461D01*
X48187D01*
X52028Y158620D01*
D02*
G37*
G36*
X179399Y153961D02*
X180076D01*
X199265Y134772D01*
X199058Y134272D01*
X195319D01*
Y127547D01*
X199681D01*
Y133649D01*
X200181Y133856D01*
X203461Y130576D01*
Y88779D01*
X200567D01*
Y89610D01*
X199029D01*
Y90386D01*
X198913Y90971D01*
X198581Y91467D01*
X197581Y92467D01*
X197085Y92799D01*
X196500Y92915D01*
X166027D01*
X165442Y92799D01*
X164945Y92467D01*
X164360Y91881D01*
X164028Y91385D01*
X163912Y90800D01*
Y87059D01*
X162965D01*
Y81713D01*
X165396D01*
X165588Y81251D01*
X164392Y80055D01*
X164060Y79558D01*
X163961Y79059D01*
X162905D01*
Y73713D01*
X163852D01*
Y73068D01*
X163586Y72743D01*
X144366D01*
Y73971D01*
X145599D01*
X146185Y74087D01*
X146681Y74419D01*
X156581Y84319D01*
X156913Y84815D01*
X157029Y85401D01*
Y95752D01*
X159990Y98713D01*
X164583D01*
X164917Y98713D01*
X165417Y98713D01*
X170035D01*
Y104059D01*
X169059D01*
Y105500D01*
X169681D01*
Y112224D01*
X165319D01*
Y105500D01*
X166000D01*
Y104413D01*
X165647Y104059D01*
X165083Y104059D01*
X164583Y104059D01*
X159965D01*
Y102448D01*
X159465Y102349D01*
X158969Y102018D01*
X155491Y98540D01*
X155029Y98731D01*
Y114350D01*
X156173D01*
Y119303D01*
X156173D01*
Y119468D01*
X156173D01*
Y120415D01*
X168307D01*
X170971Y117752D01*
Y112224D01*
X170319D01*
Y105500D01*
X174681D01*
Y112224D01*
X174029D01*
Y118386D01*
X173913Y118971D01*
X173581Y119467D01*
X170192Y122856D01*
X170399Y123356D01*
X174866D01*
X175971Y122252D01*
Y112224D01*
X175319D01*
Y105500D01*
X179681D01*
Y112224D01*
X179029D01*
Y122886D01*
X178913Y123471D01*
X178581Y123967D01*
X176581Y125967D01*
X176085Y126299D01*
X175500Y126415D01*
X163493D01*
X162822Y127085D01*
X163014Y127547D01*
X164681D01*
Y134272D01*
X164029D01*
Y135319D01*
X167354D01*
Y138386D01*
Y141453D01*
X163675D01*
Y150473D01*
X164849Y151646D01*
X165076Y151611D01*
X165245Y151256D01*
X165280Y151074D01*
X165042Y150500D01*
X168958D01*
X168695Y151133D01*
X168485Y151344D01*
X168692Y151844D01*
X176171D01*
X176757Y151960D01*
X177068Y152168D01*
X177253Y152292D01*
X179023Y154062D01*
X179399Y153961D01*
D02*
G37*
G36*
X41350Y149499D02*
X16745Y124894D01*
X16539Y124585D01*
X16039Y124737D01*
Y129341D01*
X36659Y149961D01*
X41159D01*
X41350Y149499D01*
D02*
G37*
G36*
X45971Y112924D02*
Y111400D01*
X45471Y111300D01*
X45268Y111790D01*
X44705Y112353D01*
X43970Y112657D01*
X43174D01*
X42439Y112353D01*
X41877Y111790D01*
X41572Y111055D01*
Y111002D01*
X40356Y109785D01*
X40024Y109289D01*
X39908Y108704D01*
Y106961D01*
X38665D01*
X38364Y107336D01*
Y110322D01*
X38310Y110594D01*
X38248Y110907D01*
X38248Y110907D01*
X38248Y110907D01*
X38081Y111157D01*
X37916Y111403D01*
X36249Y113071D01*
X36456Y113571D01*
X36835D01*
Y113805D01*
X45090D01*
X45971Y112924D01*
D02*
G37*
G36*
X20131Y119867D02*
X20361Y119637D01*
X20414Y119372D01*
X20745Y118876D01*
X23331Y116290D01*
X23827Y115959D01*
X24327Y115859D01*
Y114850D01*
X25471D01*
Y114472D01*
X25587Y113886D01*
X25919Y113390D01*
X27993Y111315D01*
X28490Y110984D01*
X29075Y110867D01*
X30360D01*
X30791Y110701D01*
Y109655D01*
X29723D01*
X29376Y110003D01*
X28880Y110334D01*
X28295Y110451D01*
X23705D01*
X23120Y110334D01*
X22624Y110003D01*
X21745Y109124D01*
X21414Y108628D01*
X21297Y108043D01*
Y101413D01*
X21414Y100827D01*
X21745Y100331D01*
X22331Y99745D01*
X22827Y99414D01*
X23327Y99314D01*
Y98350D01*
X28673D01*
X28865Y97930D01*
X28878Y97864D01*
X28878Y97864D01*
X28878Y97864D01*
X29032Y97634D01*
X29210Y97368D01*
X30773Y95804D01*
X30773Y95804D01*
X30774Y95804D01*
X30970Y95673D01*
X31270Y95473D01*
X31270Y95473D01*
X31270Y95473D01*
X31593Y95408D01*
X31855Y95356D01*
X31855Y95356D01*
X31855Y95356D01*
X41500D01*
X42085Y95473D01*
X42581Y95804D01*
X45790Y99013D01*
X46122Y99509D01*
X46238Y100094D01*
Y105374D01*
X46971Y106107D01*
X47433Y105915D01*
Y102870D01*
Y97161D01*
X53567D01*
Y97992D01*
X57933D01*
Y97161D01*
X64067D01*
Y98502D01*
X64971D01*
Y94019D01*
X62919Y91967D01*
X62587Y91471D01*
X62471Y90886D01*
Y67740D01*
X60561Y65830D01*
X60099Y66021D01*
Y66125D01*
X57500D01*
X54901D01*
Y64034D01*
Y62178D01*
X49789Y57066D01*
X49327Y57257D01*
Y59012D01*
X43784D01*
Y49531D01*
X44516D01*
Y42186D01*
X44054Y41995D01*
X42329Y43719D01*
Y60386D01*
X42213Y60971D01*
X41881Y61467D01*
X31051Y72298D01*
X31242Y72760D01*
X37000D01*
Y77000D01*
X30201D01*
Y73801D01*
X29739Y73610D01*
X19356Y83992D01*
Y120531D01*
X19827Y120602D01*
X20131Y119867D01*
D02*
G37*
G36*
X99177Y168856D02*
X91530Y161209D01*
X86901D01*
Y155860D01*
X65419Y134377D01*
X65087Y133881D01*
X64971Y133295D01*
Y102019D01*
X64567Y101616D01*
X64067Y101693D01*
Y102870D01*
Y105240D01*
X57933D01*
Y102071D01*
X53567D01*
Y105240D01*
X50500D01*
Y105740D01*
X50000D01*
Y108610D01*
X49184D01*
X49029Y108799D01*
Y113558D01*
X48976Y113827D01*
X49000Y113856D01*
X49585Y113973D01*
X50081Y114304D01*
X55881Y120104D01*
X56213Y120600D01*
X56329Y121186D01*
Y143987D01*
X56495Y144153D01*
X56800Y144888D01*
Y145684D01*
X56495Y146419D01*
X55933Y146981D01*
X55198Y147286D01*
X54402D01*
X53667Y146981D01*
X53105Y146419D01*
X52800Y145684D01*
Y144888D01*
X53105Y144153D01*
X53271Y143987D01*
Y121819D01*
X48366Y116915D01*
X45724D01*
X45463Y116863D01*
X44835D01*
X44709Y117311D01*
X44709Y117363D01*
Y118356D01*
X45450D01*
X45808Y117999D01*
X46543Y117694D01*
X47339D01*
X48074Y117999D01*
X48636Y118561D01*
X48941Y119296D01*
Y120092D01*
X48636Y120827D01*
X48074Y121389D01*
X47339Y121694D01*
X46543D01*
X45870Y121415D01*
X44709D01*
Y122461D01*
X39165D01*
Y117363D01*
X39165Y117311D01*
X39039Y116863D01*
X36835D01*
Y118720D01*
X31291D01*
Y113926D01*
X29708D01*
X29246Y114389D01*
X29437Y114850D01*
X29673D01*
Y119468D01*
X29673Y119803D01*
X29673Y120303D01*
Y122097D01*
X31291D01*
Y121051D01*
X36835D01*
Y126201D01*
X31291D01*
Y125155D01*
X28759D01*
X28174Y125039D01*
X28041Y124951D01*
X27976D01*
X27829Y124921D01*
X24327D01*
Y120858D01*
X23827Y120662D01*
Y121398D01*
X23522Y122133D01*
X22960Y122696D01*
X22225Y123000D01*
X21429D01*
X20694Y122696D01*
X20131Y122133D01*
X19827Y121398D01*
X19356Y121469D01*
Y123179D01*
X44148Y147971D01*
X66814D01*
X67400Y148087D01*
X67896Y148419D01*
X71581Y152104D01*
X71913Y152601D01*
X72029Y153186D01*
Y166352D01*
X75033Y169356D01*
X98970D01*
X99177Y168856D01*
D02*
G37*
G36*
X194433Y89610D02*
Y87917D01*
X193933Y87818D01*
X193437Y87486D01*
X191679Y85728D01*
X191255Y86011D01*
X191458Y86500D01*
X187542D01*
X187785Y85913D01*
X187605Y85413D01*
X187035D01*
Y83724D01*
X186035D01*
Y85413D01*
X184551D01*
Y85164D01*
X184415Y85137D01*
X183919Y84806D01*
X182919Y83806D01*
X182587Y83310D01*
X182471Y82724D01*
Y80239D01*
X181971Y79972D01*
X181900Y80019D01*
X181315Y80136D01*
X180449D01*
Y80295D01*
Y85413D01*
X176480D01*
Y85254D01*
X173035D01*
Y87059D01*
X171592D01*
X171385Y87559D01*
X171387Y87562D01*
X171691Y88297D01*
Y89092D01*
X171582Y89356D01*
X171916Y89856D01*
X194035D01*
X194433Y89610D01*
D02*
G37*
G36*
Y83449D02*
Y81531D01*
X197500D01*
Y81031D01*
X198000D01*
Y78161D01*
X198059D01*
X198251Y77699D01*
X190771Y70220D01*
X190440Y69724D01*
X190323Y69139D01*
Y68019D01*
X190058Y67754D01*
X179611D01*
X179511Y68254D01*
X179633Y68305D01*
X180195Y68867D01*
X180458Y69500D01*
X176542D01*
X176804Y68867D01*
X177367Y68305D01*
X177489Y68254D01*
X177389Y67754D01*
X172858D01*
X167636Y72976D01*
X167702Y73588D01*
X167858Y73712D01*
X168024D01*
Y73713D01*
X172976D01*
Y74856D01*
X173713D01*
X174298Y74973D01*
X174794Y75304D01*
X175980Y76491D01*
X176480Y76284D01*
Y74358D01*
X177965D01*
Y76047D01*
X178465D01*
Y76547D01*
X180449D01*
Y76602D01*
X180949Y76810D01*
X182793Y74966D01*
X183289Y74634D01*
X183874Y74518D01*
X184551D01*
Y74358D01*
X188520D01*
Y74818D01*
X188545Y74823D01*
X189041Y75155D01*
X189582Y75695D01*
X189874Y75500D01*
X191500D01*
Y76958D01*
X191140Y76809D01*
X190735Y77182D01*
X190809Y77556D01*
Y80532D01*
X193933Y83656D01*
X194433Y83449D01*
D02*
G37*
G36*
X16745Y82278D02*
X30523Y68500D01*
X30316Y68000D01*
X30102D01*
X29367Y67695D01*
X28804Y67133D01*
X28500Y66398D01*
Y66077D01*
X28000Y65870D01*
X16039Y77830D01*
Y82434D01*
X16539Y82586D01*
X16745Y82278D01*
D02*
G37*
G36*
X202071Y76540D02*
Y65119D01*
X196560Y59609D01*
X196098Y59800D01*
Y63153D01*
X188193D01*
Y57610D01*
X193908D01*
X194099Y57148D01*
X190951Y54000D01*
X190716D01*
X189981Y53695D01*
X189419Y53133D01*
X189114Y52398D01*
Y51602D01*
X189419Y50867D01*
X189624Y50661D01*
X189417Y50161D01*
X188193D01*
Y47852D01*
X177856Y37516D01*
X175866D01*
Y37315D01*
X162890D01*
X162109Y37160D01*
X161448Y36718D01*
X156992Y32261D01*
X156543Y32493D01*
X156529Y32506D01*
Y69684D01*
X166603D01*
X171143Y65143D01*
X171639Y64812D01*
X172225Y64695D01*
X190692D01*
X191277Y64812D01*
X191773Y65143D01*
X192934Y66304D01*
X193266Y66800D01*
X193382Y67386D01*
Y68505D01*
X201609Y76732D01*
X202071Y76540D01*
D02*
G37*
G36*
X153471Y69367D02*
Y62969D01*
X153000Y62898D01*
X152696Y63633D01*
X152133Y64196D01*
X151398Y64500D01*
X150602D01*
X149867Y64196D01*
X149304Y63633D01*
X149000Y62898D01*
Y62102D01*
X149304Y61367D01*
X149867Y60804D01*
X150111Y60703D01*
Y32774D01*
X144725Y27388D01*
X144366Y27736D01*
Y32728D01*
Y37728D01*
Y42728D01*
Y44650D01*
X144866Y44857D01*
X145500Y44223D01*
Y43988D01*
X145805Y43253D01*
X146367Y42690D01*
X147102Y42386D01*
X147898D01*
X148633Y42690D01*
X149196Y43253D01*
X149500Y43988D01*
Y44784D01*
X149196Y45519D01*
X148633Y46081D01*
X147898Y46386D01*
X147663D01*
X147329Y46719D01*
Y59413D01*
X147213Y59999D01*
X146881Y60495D01*
X145081Y62295D01*
X144585Y62626D01*
X144366Y62670D01*
Y67728D01*
Y69684D01*
X153153D01*
X153471Y69367D01*
D02*
G37*
G36*
X39271Y59752D02*
Y59012D01*
X38000D01*
Y54272D01*
X37000D01*
Y59012D01*
X34728D01*
X34728Y59012D01*
Y59012D01*
X34426Y59402D01*
X34342Y59528D01*
X33801Y60069D01*
X33658Y60282D01*
X33658Y60282D01*
X32487Y61454D01*
X32273Y61596D01*
X30370Y63500D01*
X30577Y64000D01*
X30898D01*
X31633Y64305D01*
X32195Y64867D01*
X32500Y65602D01*
Y65816D01*
X33000Y66023D01*
X39271Y59752D01*
D02*
G37*
G36*
X38000Y43542D02*
X38633Y43804D01*
X38771Y43942D01*
X39271Y43735D01*
Y43086D01*
X39387Y42500D01*
X39719Y42004D01*
X43919Y37804D01*
X44415Y37473D01*
X45000Y37356D01*
X46170D01*
X46327Y36921D01*
X46327D01*
Y35974D01*
X39768D01*
X39575Y35936D01*
X39075Y36341D01*
Y40095D01*
X38537D01*
X38384Y40866D01*
X37942Y41528D01*
X36022Y43447D01*
X36367Y43804D01*
X37000Y43542D01*
Y45500D01*
X38000D01*
Y43542D01*
D02*
G37*
G36*
X67563Y90160D02*
Y87728D01*
Y82728D01*
Y77728D01*
Y72728D01*
Y67728D01*
Y62728D01*
Y57743D01*
X65327D01*
X64742Y57626D01*
X64246Y57295D01*
X49056Y42105D01*
X48594Y42296D01*
Y49531D01*
X49327D01*
Y52509D01*
X50155D01*
X50936Y52664D01*
X51597Y53106D01*
X57785Y59294D01*
X60099D01*
Y61160D01*
X60452Y61396D01*
X65081Y66025D01*
X65413Y66521D01*
X65529Y67106D01*
Y90252D01*
X66500Y91223D01*
X67563Y90160D01*
D02*
G37*
G36*
X30861Y43686D02*
X31016Y42905D01*
X31458Y42244D01*
X33925Y39777D01*
Y36415D01*
X31785D01*
X31199Y36299D01*
X30703Y35967D01*
X30112Y35376D01*
X29724Y35695D01*
X29858Y35895D01*
X29974Y36481D01*
Y49531D01*
X30861D01*
Y43686D01*
D02*
G37*
G36*
X134492Y87728D02*
Y82728D01*
Y77728D01*
Y72728D01*
Y67728D01*
Y62728D01*
Y57415D01*
X134113Y57162D01*
X130570Y53619D01*
X130238Y53123D01*
X130122Y52537D01*
Y50480D01*
X129956Y50314D01*
X129651Y49579D01*
Y48783D01*
X129956Y48048D01*
X130518Y47485D01*
X131254Y47181D01*
X132049D01*
X132784Y47485D01*
X133347Y48048D01*
X133651Y48783D01*
Y49579D01*
X133347Y50314D01*
X133181Y50480D01*
Y51904D01*
X133992Y52715D01*
X134492Y52508D01*
Y47728D01*
Y42728D01*
Y37728D01*
Y35340D01*
X134030Y35149D01*
X130500Y38679D01*
Y38914D01*
X130195Y39649D01*
X129633Y40212D01*
X128898Y40516D01*
X128102D01*
X127367Y40212D01*
X126804Y39649D01*
X126500Y38914D01*
X126029Y38985D01*
Y51686D01*
X125913Y52271D01*
X125581Y52767D01*
X124029Y54319D01*
Y85752D01*
X127961Y89684D01*
X134492D01*
Y87728D01*
D02*
G37*
G36*
X52827Y31968D02*
X52827D01*
Y31803D01*
X52827D01*
Y26850D01*
X53971D01*
Y25386D01*
Y20519D01*
X53224Y19773D01*
X52893Y19277D01*
X52776Y18691D01*
Y6580D01*
X52809Y6415D01*
X52399Y5915D01*
X51518D01*
X31256Y26177D01*
X31316Y26677D01*
X35335D01*
Y29191D01*
X36044D01*
X36629Y29307D01*
X37125Y29639D01*
X37203Y29717D01*
X37665Y29526D01*
Y26677D01*
X39740D01*
Y29449D01*
X40240D01*
Y29949D01*
X42815D01*
Y32220D01*
X40688D01*
X40440Y32720D01*
X40589Y32915D01*
X45973D01*
X46327Y32562D01*
X46327Y31968D01*
X46327Y31468D01*
Y29827D01*
X49000D01*
X51673D01*
Y31468D01*
X51673Y31803D01*
X51673Y32303D01*
Y32915D01*
X52827D01*
Y31968D01*
D02*
G37*
G36*
X144706Y27369D02*
X136902Y19565D01*
X133495D01*
X133304Y20027D01*
X134581Y21304D01*
X134913Y21801D01*
X135029Y22386D01*
Y27728D01*
X144358D01*
X144706Y27369D01*
D02*
G37*
G36*
X59769Y18954D02*
X60265Y18622D01*
X60850Y18506D01*
X93304D01*
X93495Y18044D01*
X90667Y15215D01*
X90602Y15253D01*
X89546Y15535D01*
X88454D01*
X87398Y15253D01*
X86452Y14706D01*
X85680Y13934D01*
X85133Y12988D01*
X84850Y11932D01*
Y10840D01*
X85133Y9784D01*
X85680Y8838D01*
X86102Y8415D01*
X85895Y7915D01*
X82105D01*
X81898Y8415D01*
X82320Y8838D01*
X82867Y9784D01*
X83150Y10840D01*
Y11932D01*
X82867Y12988D01*
X82320Y13934D01*
X81548Y14706D01*
X80602Y15253D01*
X79546Y15535D01*
X78454D01*
X77398Y15253D01*
X76452Y14706D01*
X75679Y13934D01*
X75133Y12988D01*
X74850Y11932D01*
Y10840D01*
X75133Y9784D01*
X75679Y8838D01*
X76102Y8415D01*
X75895Y7915D01*
X72105D01*
X71898Y8415D01*
X72320Y8838D01*
X72867Y9784D01*
X73150Y10840D01*
Y11932D01*
X72867Y12988D01*
X72320Y13934D01*
X71548Y14706D01*
X70602Y15253D01*
X69546Y15535D01*
X68454D01*
X67398Y15253D01*
X66452Y14706D01*
X65680Y13934D01*
X65133Y12988D01*
X64850Y11932D01*
Y10840D01*
X65133Y9784D01*
X65680Y8838D01*
X66102Y8415D01*
X65895Y7915D01*
X62105D01*
X61898Y8415D01*
X62321Y8838D01*
X62867Y9784D01*
X63150Y10840D01*
Y10886D01*
X59000D01*
Y11386D01*
X58500D01*
Y15535D01*
X58454D01*
X57398Y15253D01*
X56452Y14706D01*
X56297Y14551D01*
X55835Y14742D01*
Y18058D01*
X56581Y18804D01*
X56913Y19300D01*
X57029Y19886D01*
Y21040D01*
X57491Y21232D01*
X59769Y18954D01*
D02*
G37*
G36*
X135790Y14044D02*
X135679Y13934D01*
X135133Y12988D01*
X134850Y11932D01*
Y10840D01*
X135133Y9784D01*
X135171Y9719D01*
X128867Y3415D01*
X113846D01*
X113654Y3877D01*
X117333Y7556D01*
X117398Y7519D01*
X118454Y7236D01*
X119546D01*
X120602Y7519D01*
X121548Y8065D01*
X122320Y8838D01*
X122867Y9784D01*
X123150Y10840D01*
Y11932D01*
X122867Y12988D01*
X122320Y13934D01*
X122210Y14044D01*
X122401Y14506D01*
X125599D01*
X125790Y14044D01*
X125680Y13934D01*
X125133Y12988D01*
X124850Y11932D01*
Y10840D01*
X125133Y9784D01*
X125680Y8838D01*
X126452Y8065D01*
X127398Y7519D01*
X128454Y7236D01*
X129546D01*
X130602Y7519D01*
X131548Y8065D01*
X132320Y8838D01*
X132867Y9784D01*
X133150Y10840D01*
Y11932D01*
X132867Y12988D01*
X132320Y13934D01*
X132210Y14044D01*
X132402Y14506D01*
X135599D01*
X135790Y14044D01*
D02*
G37*
G36*
X49231Y3877D02*
X49039Y3415D01*
X47633D01*
X28714Y22334D01*
Y23740D01*
X29176Y23932D01*
X49231Y3877D01*
D02*
G37*
%LPC*%
G36*
X232862Y161472D02*
X229606D01*
Y158217D01*
X232862D01*
Y161472D01*
D02*
G37*
G36*
X228606D02*
X225350D01*
Y158217D01*
X228606D01*
Y161472D01*
D02*
G37*
G36*
X232862Y157217D02*
X229606D01*
Y153961D01*
X232862D01*
Y157217D01*
D02*
G37*
G36*
X228606D02*
X225350D01*
Y153961D01*
X228606D01*
Y157217D01*
D02*
G37*
G36*
X209916Y161472D02*
X208927D01*
X207972Y161216D01*
X207115Y160722D01*
X206416Y160023D01*
X205921Y159166D01*
X205665Y158211D01*
Y157222D01*
X205921Y156267D01*
X206416Y155410D01*
X207115Y154711D01*
X207972Y154217D01*
X208927Y153961D01*
X209916D01*
X210871Y154217D01*
X211727Y154711D01*
X212427Y155410D01*
X212921Y156267D01*
X213177Y157222D01*
Y158211D01*
X212921Y159166D01*
X212427Y160023D01*
X211727Y160722D01*
X210871Y161216D01*
X209916Y161472D01*
D02*
G37*
G36*
X190231D02*
X189242D01*
X188286Y161216D01*
X187430Y160722D01*
X186731Y160023D01*
X186236Y159166D01*
X185980Y158211D01*
Y157222D01*
X186236Y156267D01*
X186731Y155410D01*
X187430Y154711D01*
X188286Y154217D01*
X189242Y153961D01*
X190231D01*
X191186Y154217D01*
X192042Y154711D01*
X192742Y155410D01*
X193236Y156267D01*
X193492Y157222D01*
Y158211D01*
X193236Y159166D01*
X192742Y160023D01*
X192042Y160722D01*
X191186Y161216D01*
X190231Y161472D01*
D02*
G37*
G36*
X235614Y128047D02*
X228102D01*
Y117780D01*
X235614D01*
Y128047D01*
D02*
G37*
G36*
Y92220D02*
X232358D01*
Y87587D01*
X235614D01*
Y92220D01*
D02*
G37*
G36*
X231358D02*
X228102D01*
Y87587D01*
X231358D01*
Y92220D01*
D02*
G37*
G36*
X235614Y86587D02*
X232358D01*
Y81953D01*
X235614D01*
Y86587D01*
D02*
G37*
G36*
X231358D02*
X228102D01*
Y81953D01*
X231358D01*
Y86587D01*
D02*
G37*
G36*
X235614Y63433D02*
X228102D01*
Y53165D01*
X235614D01*
Y63433D01*
D02*
G37*
G36*
X14500Y45458D02*
Y44000D01*
X15958D01*
X15696Y44633D01*
X15133Y45195D01*
X14500Y45458D01*
D02*
G37*
G36*
X13500D02*
X12867Y45195D01*
X12304Y44633D01*
X12042Y44000D01*
X13500D01*
Y45458D01*
D02*
G37*
G36*
X15958Y43000D02*
X14500D01*
Y41542D01*
X15133Y41805D01*
X15696Y42367D01*
X15958Y43000D01*
D02*
G37*
G36*
X13500D02*
X12042D01*
X12304Y42367D01*
X12867Y41805D01*
X13500Y41542D01*
Y43000D01*
D02*
G37*
G36*
X16535Y40673D02*
X14559D01*
Y38500D01*
X16535D01*
Y40673D01*
D02*
G37*
G36*
X235614Y27606D02*
X232358D01*
Y22972D01*
X235614D01*
Y27606D01*
D02*
G37*
G36*
X231358D02*
X228102D01*
Y22972D01*
X231358D01*
Y27606D01*
D02*
G37*
G36*
X235614Y21972D02*
X232358D01*
Y17338D01*
X235614D01*
Y21972D01*
D02*
G37*
G36*
X231358D02*
X228102D01*
Y17338D01*
X231358D01*
Y21972D01*
D02*
G37*
G36*
X214398Y33000D02*
X213602D01*
X212867Y32695D01*
X212304Y32133D01*
X212000Y31398D01*
Y30602D01*
X212304Y29867D01*
X212612Y29559D01*
Y27606D01*
X210386D01*
Y17338D01*
X217898D01*
Y27606D01*
X215671D01*
Y29843D01*
X215696Y29867D01*
X216000Y30602D01*
Y31398D01*
X215696Y32133D01*
X215133Y32695D01*
X214398Y33000D01*
D02*
G37*
G36*
X192260Y21901D02*
X191459Y21795D01*
X190713Y21486D01*
X190193Y21087D01*
X189118D01*
Y17429D01*
Y13772D01*
X190406D01*
Y14995D01*
X190906Y15261D01*
X191459Y15032D01*
X192260Y14926D01*
X193060Y15032D01*
X193807Y15341D01*
X194447Y15832D01*
X194939Y16473D01*
X195248Y17219D01*
X195353Y18020D01*
Y18807D01*
X195248Y19608D01*
X194939Y20354D01*
X194447Y20994D01*
X193807Y21486D01*
X193060Y21795D01*
X192260Y21901D01*
D02*
G37*
G36*
X201658Y11146D02*
X194002D01*
X193612Y11068D01*
X193281Y10847D01*
X193071Y10532D01*
X193026Y10523D01*
X192571Y10616D01*
Y11126D01*
X174429D01*
Y10616D01*
X173974Y10523D01*
X173929Y10532D01*
X173719Y10847D01*
X173388Y11068D01*
X172998Y11146D01*
X165342D01*
X164952Y11068D01*
X164518Y10888D01*
X164187Y10667D01*
X163855Y10335D01*
X163634Y10004D01*
X163454Y9570D01*
X163376Y9180D01*
Y4223D01*
X163454Y3832D01*
X163753Y3109D01*
X163974Y2778D01*
X164528Y2224D01*
X164859Y2003D01*
X165582Y1704D01*
X165973Y1626D01*
X172998D01*
X173388Y1704D01*
X173719Y1925D01*
X173929Y2239D01*
X173974Y2249D01*
X174429Y2156D01*
Y1646D01*
X192571D01*
Y2156D01*
X193026Y2249D01*
X193071Y2239D01*
X193281Y1925D01*
X193612Y1704D01*
X194002Y1626D01*
X201027D01*
X201418Y1704D01*
X202141Y2003D01*
X202472Y2224D01*
X203026Y2778D01*
X203247Y3109D01*
X203546Y3832D01*
X203624Y4223D01*
Y9180D01*
X203546Y9570D01*
X203366Y10004D01*
X203146Y10335D01*
X202813Y10667D01*
X202483Y10888D01*
X202048Y11068D01*
X201658Y11146D01*
D02*
G37*
%LPD*%
G36*
X202092Y9946D02*
X202425Y9614D01*
X202604Y9180D01*
Y8945D01*
Y4614D01*
Y4223D01*
X202305Y3499D01*
X201751Y2945D01*
X201027Y2646D01*
X194002D01*
Y10126D01*
X201658D01*
X202092Y9946D01*
D02*
G37*
G36*
X172998Y2646D02*
X165973D01*
X165249Y2945D01*
X164695Y3499D01*
X164396Y4223D01*
Y4614D01*
Y8945D01*
Y9180D01*
X164576Y9614D01*
X164908Y9946D01*
X165342Y10126D01*
X172998D01*
Y2646D01*
D02*
G37*
%LPC*%
G36*
X155843Y161207D02*
Y157953D01*
X159097D01*
X158843Y158903D01*
X158348Y159759D01*
X157649Y160458D01*
X156792Y160953D01*
X155843Y161207D01*
D02*
G37*
G36*
X154843D02*
X153893Y160953D01*
X153036Y160458D01*
X152337Y159759D01*
X151843Y158903D01*
X151588Y157953D01*
X154843D01*
Y161207D01*
D02*
G37*
G36*
X110843D02*
Y157953D01*
X114097D01*
X113842Y158903D01*
X113348Y159759D01*
X112649Y160458D01*
X111792Y160953D01*
X110843Y161207D01*
D02*
G37*
G36*
X109843D02*
X108893Y160953D01*
X108036Y160458D01*
X107337Y159759D01*
X106843Y158903D01*
X106588Y157953D01*
X109843D01*
Y161207D01*
D02*
G37*
G36*
X159097Y156953D02*
X155843D01*
Y153698D01*
X156792Y153953D01*
X157649Y154447D01*
X158348Y155147D01*
X158843Y156003D01*
X159097Y156953D01*
D02*
G37*
G36*
X154843D02*
X151588D01*
X151843Y156003D01*
X152337Y155147D01*
X153036Y154447D01*
X153893Y153953D01*
X154843Y153698D01*
Y156953D01*
D02*
G37*
G36*
X114097D02*
X110843D01*
Y153698D01*
X111792Y153953D01*
X112649Y154447D01*
X113348Y155147D01*
X113842Y156003D01*
X114097Y156953D01*
D02*
G37*
G36*
X109843D02*
X106588D01*
X106843Y156003D01*
X107337Y155147D01*
X108036Y154447D01*
X108893Y153953D01*
X109843Y153698D01*
Y156953D01*
D02*
G37*
G36*
X145994Y161209D02*
X145006D01*
X144050Y160953D01*
X143194Y160458D01*
X142494Y159759D01*
X142000Y158903D01*
X141744Y157947D01*
Y156958D01*
X142000Y156003D01*
X142494Y155147D01*
X143194Y154447D01*
X144050Y153953D01*
X145006Y153697D01*
X145994D01*
X146950Y153953D01*
X147806Y154447D01*
X148505Y155147D01*
X149000Y156003D01*
X149256Y156958D01*
Y157947D01*
X149000Y158903D01*
X148505Y159759D01*
X147806Y160458D01*
X146950Y160953D01*
X145994Y161209D01*
D02*
G37*
G36*
X100995D02*
X100005D01*
X99050Y160953D01*
X98194Y160458D01*
X97495Y159759D01*
X97000Y158903D01*
X96744Y157947D01*
Y156958D01*
X97000Y156003D01*
X97495Y155147D01*
X98194Y154447D01*
X99050Y153953D01*
X100005Y153697D01*
X100995D01*
X101950Y153953D01*
X102806Y154447D01*
X103506Y155147D01*
X104000Y156003D01*
X104256Y156958D01*
Y157947D01*
X104000Y158903D01*
X103506Y159759D01*
X102806Y160458D01*
X101950Y160953D01*
X100995Y161209D01*
D02*
G37*
G36*
X156567Y136724D02*
X154000D01*
Y134354D01*
X156567D01*
Y136724D01*
D02*
G37*
G36*
X153000D02*
X150433D01*
Y134354D01*
X153000D01*
Y136724D01*
D02*
G37*
G36*
X146000Y133458D02*
Y132000D01*
X147458D01*
X147195Y132633D01*
X146633Y133195D01*
X146000Y133458D01*
D02*
G37*
G36*
X145000D02*
X144367Y133195D01*
X143805Y132633D01*
X143542Y132000D01*
X145000D01*
Y133458D01*
D02*
G37*
G36*
X147458Y131000D02*
X146000D01*
Y129542D01*
X146633Y129805D01*
X147195Y130367D01*
X147458Y131000D01*
D02*
G37*
G36*
X145000D02*
X143542D01*
X143805Y130367D01*
X144367Y129805D01*
X145000Y129542D01*
Y131000D01*
D02*
G37*
G36*
X141398Y126008D02*
X70531D01*
X70141Y125930D01*
X69810Y125709D01*
X69589Y125378D01*
X69512Y124988D01*
Y100185D01*
X69589Y99795D01*
X69810Y99464D01*
X70141Y99243D01*
X70531Y99165D01*
X141398D01*
X141788Y99243D01*
X142119Y99464D01*
X142340Y99795D01*
X142417Y100185D01*
Y124988D01*
X142340Y125378D01*
X142119Y125709D01*
X141788Y125930D01*
X141398Y126008D01*
D02*
G37*
G36*
X144366Y98272D02*
X139929D01*
Y96000D01*
X144366D01*
Y98272D01*
D02*
G37*
G36*
X138929D02*
X134492D01*
Y96000D01*
X138929D01*
Y98272D01*
D02*
G37*
G36*
X77437D02*
X73000D01*
Y96000D01*
X77437D01*
Y98272D01*
D02*
G37*
G36*
X82500Y96958D02*
Y95500D01*
X83958D01*
X83696Y96133D01*
X83133Y96696D01*
X82500Y96958D01*
D02*
G37*
G36*
X81500D02*
X80867Y96696D01*
X80304Y96133D01*
X80042Y95500D01*
X81500D01*
Y96958D01*
D02*
G37*
G36*
X83958Y94500D02*
X82500D01*
Y93042D01*
X83133Y93305D01*
X83696Y93867D01*
X83958Y94500D01*
D02*
G37*
G36*
X81500D02*
X80042D01*
X80304Y93867D01*
X80867Y93305D01*
X81500Y93042D01*
Y94500D01*
D02*
G37*
G36*
X112870Y76815D02*
X109752D01*
Y73697D01*
X112870D01*
Y76815D01*
D02*
G37*
G36*
X94303D02*
X91185D01*
Y73697D01*
X94303D01*
Y76815D01*
D02*
G37*
G36*
X108752D02*
X102528D01*
Y73197D01*
X101528D01*
Y76815D01*
X95303D01*
Y73197D01*
X94803D01*
Y72697D01*
X91185D01*
Y69579D01*
Y66472D01*
X94803D01*
Y65472D01*
X91185D01*
Y62354D01*
Y59248D01*
X94803D01*
Y58748D01*
X95303D01*
Y55130D01*
X101528D01*
Y58748D01*
X102528D01*
Y55130D01*
X108752D01*
Y58748D01*
X109252D01*
Y59248D01*
X112870D01*
Y62354D01*
Y65472D01*
X109252D01*
Y66472D01*
X112870D01*
Y69579D01*
Y72697D01*
X109252D01*
Y73197D01*
X108752D01*
Y76815D01*
D02*
G37*
G36*
X112870Y58248D02*
X109752D01*
Y55130D01*
X112870D01*
Y58248D01*
D02*
G37*
G36*
X94303D02*
X91185D01*
Y55130D01*
X94303D01*
Y58248D01*
D02*
G37*
G36*
X82965Y31500D02*
X80693D01*
Y27063D01*
X82965D01*
Y31500D01*
D02*
G37*
G36*
X32033Y161437D02*
X32000D01*
Y157886D01*
X35551D01*
Y157919D01*
X35275Y158949D01*
X34742Y159873D01*
X33988Y160627D01*
X33064Y161161D01*
X32033Y161437D01*
D02*
G37*
G36*
X31000D02*
X30967D01*
X29936Y161161D01*
X29013Y160627D01*
X28258Y159873D01*
X27725Y158949D01*
X27449Y157919D01*
Y157886D01*
X31000D01*
Y161437D01*
D02*
G37*
G36*
X35551Y156886D02*
X32000D01*
Y153335D01*
X32033D01*
X33064Y153611D01*
X33988Y154144D01*
X34742Y154898D01*
X35275Y155822D01*
X35551Y156852D01*
Y156886D01*
D02*
G37*
G36*
X31000D02*
X27449D01*
Y156852D01*
X27725Y155822D01*
X28258Y154898D01*
X29013Y154144D01*
X29936Y153611D01*
X30967Y153335D01*
X31000D01*
Y156886D01*
D02*
G37*
G36*
X16500Y69216D02*
X14401D01*
Y67125D01*
X16500D01*
Y69216D01*
D02*
G37*
G36*
X168958Y149500D02*
X167500D01*
Y148042D01*
X168133Y148304D01*
X168695Y148867D01*
X168958Y149500D01*
D02*
G37*
G36*
X166500D02*
X165042D01*
X165305Y148867D01*
X165867Y148304D01*
X166500Y148042D01*
Y149500D01*
D02*
G37*
G36*
X183898Y141986D02*
X183102D01*
X182367Y141681D01*
X182201Y141515D01*
X181850D01*
X181265Y141399D01*
X180769Y141067D01*
X176419Y136717D01*
X176087Y136221D01*
X175971Y135636D01*
Y134272D01*
X175319D01*
Y127547D01*
X179681D01*
Y134272D01*
X179029D01*
Y135002D01*
X182342Y138315D01*
X182367Y138290D01*
X183102Y137986D01*
X183898D01*
X184633Y138290D01*
X185196Y138853D01*
X185500Y139588D01*
Y140384D01*
X185196Y141119D01*
X184633Y141681D01*
X183898Y141986D01*
D02*
G37*
G36*
X194681Y134272D02*
X190319D01*
Y127547D01*
X194681D01*
Y134272D01*
D02*
G37*
G36*
X189681D02*
X185319D01*
Y127547D01*
X189681D01*
Y134272D01*
D02*
G37*
G36*
X184681D02*
X180319D01*
Y127547D01*
X184681D01*
Y134272D01*
D02*
G37*
G36*
X170898Y147286D02*
X170102D01*
X169367Y146981D01*
X168805Y146419D01*
X168500Y145684D01*
Y144888D01*
X168805Y144153D01*
X169367Y143590D01*
X170102Y143286D01*
X170337D01*
X170971Y142652D01*
Y141851D01*
X170724Y141453D01*
X170471Y141453D01*
X168354D01*
Y138386D01*
Y135319D01*
X170471D01*
X170724Y135319D01*
X170971Y134921D01*
Y134272D01*
X170319D01*
Y127547D01*
X174681D01*
Y134272D01*
X174029D01*
Y143286D01*
X173913Y143871D01*
X173581Y144367D01*
X172500Y145449D01*
Y145684D01*
X172195Y146419D01*
X171633Y146981D01*
X170898Y147286D01*
D02*
G37*
G36*
X169681Y134272D02*
X165319D01*
Y127547D01*
X169681D01*
Y134272D01*
D02*
G37*
G36*
X164681Y112224D02*
X163000D01*
Y109362D01*
X164681D01*
Y112224D01*
D02*
G37*
G36*
X162000D02*
X160319D01*
Y109362D01*
X162000D01*
Y112224D01*
D02*
G37*
G36*
X199681D02*
X195319D01*
Y105500D01*
X199681D01*
Y112224D01*
D02*
G37*
G36*
X194681D02*
X190319D01*
Y105500D01*
X194681D01*
Y112224D01*
D02*
G37*
G36*
X164681Y108362D02*
X163000D01*
Y105500D01*
X164681D01*
Y108362D01*
D02*
G37*
G36*
X162000D02*
X160319D01*
Y105500D01*
X162000D01*
Y108362D01*
D02*
G37*
G36*
X184681Y112224D02*
X180319D01*
Y105500D01*
X180971D01*
Y98445D01*
X180367Y98195D01*
X179805Y97633D01*
X179500Y96898D01*
Y96102D01*
X179805Y95367D01*
X180367Y94805D01*
X181102Y94500D01*
X181898D01*
X182633Y94805D01*
X183195Y95367D01*
X183500Y96102D01*
Y96337D01*
X183581Y96419D01*
X183913Y96915D01*
X184029Y97500D01*
Y105500D01*
X184681D01*
Y112224D01*
D02*
G37*
G36*
X189681D02*
X185319D01*
Y105500D01*
X185971D01*
Y96785D01*
X185804Y96619D01*
X185500Y95884D01*
Y95088D01*
X185804Y94353D01*
X186367Y93790D01*
X187102Y93486D01*
X187898D01*
X188633Y93790D01*
X189196Y94353D01*
X189500Y95088D01*
Y95884D01*
X189196Y96619D01*
X189029Y96785D01*
Y105500D01*
X189681D01*
Y112224D01*
D02*
G37*
G36*
X44799Y82240D02*
X38000D01*
Y78000D01*
X44799D01*
Y82240D01*
D02*
G37*
G36*
X37000D02*
X30201D01*
Y78000D01*
X37000D01*
Y82240D01*
D02*
G37*
G36*
X44799Y77000D02*
X38000D01*
Y72760D01*
X44799D01*
Y77000D01*
D02*
G37*
G36*
X41000Y71458D02*
Y70000D01*
X42458D01*
X42195Y70633D01*
X41633Y71196D01*
X41000Y71458D01*
D02*
G37*
G36*
X40000D02*
X39367Y71196D01*
X38805Y70633D01*
X38542Y70000D01*
X40000D01*
Y71458D01*
D02*
G37*
G36*
X42458Y69000D02*
X41000D01*
Y67542D01*
X41633Y67804D01*
X42195Y68367D01*
X42458Y69000D01*
D02*
G37*
G36*
X40000D02*
X38542D01*
X38805Y68367D01*
X39367Y67804D01*
X40000Y67542D01*
Y69000D01*
D02*
G37*
G36*
X60099Y69216D02*
X58000D01*
Y67125D01*
X60099D01*
Y69216D01*
D02*
G37*
G36*
X57000D02*
X54901D01*
Y67125D01*
X57000D01*
Y69216D01*
D02*
G37*
G36*
X60500Y115958D02*
Y114500D01*
X61958D01*
X61695Y115133D01*
X61133Y115696D01*
X60500Y115958D01*
D02*
G37*
G36*
X59500D02*
X58867Y115696D01*
X58305Y115133D01*
X58042Y114500D01*
X59500D01*
Y115958D01*
D02*
G37*
G36*
X61958Y113500D02*
X60500D01*
Y112042D01*
X61133Y112304D01*
X61695Y112867D01*
X61958Y113500D01*
D02*
G37*
G36*
X59500D02*
X58042D01*
X58305Y112867D01*
X58867Y112304D01*
X59500Y112042D01*
Y113500D01*
D02*
G37*
G36*
X64067Y108610D02*
X61500D01*
Y106240D01*
X64067D01*
Y108610D01*
D02*
G37*
G36*
X60500D02*
X57933D01*
Y106240D01*
X60500D01*
Y108610D01*
D02*
G37*
G36*
X53567D02*
X51000D01*
Y106240D01*
X53567D01*
Y108610D01*
D02*
G37*
G36*
X190000Y88958D02*
Y87500D01*
X191458D01*
X191195Y88133D01*
X190633Y88696D01*
X190000Y88958D01*
D02*
G37*
G36*
X189000D02*
X188367Y88696D01*
X187804Y88133D01*
X187542Y87500D01*
X189000D01*
Y88958D01*
D02*
G37*
G36*
X197000Y80531D02*
X194433D01*
Y78161D01*
X197000D01*
Y80531D01*
D02*
G37*
G36*
X192500Y76958D02*
Y75500D01*
X193958D01*
X193695Y76133D01*
X193133Y76696D01*
X192500Y76958D01*
D02*
G37*
G36*
X180449Y75547D02*
X178965D01*
Y74358D01*
X180449D01*
Y75547D01*
D02*
G37*
G36*
X193958Y74500D02*
X192500D01*
Y73042D01*
X193133Y73304D01*
X193695Y73867D01*
X193958Y74500D01*
D02*
G37*
G36*
X191500D02*
X190042D01*
X190305Y73867D01*
X190867Y73304D01*
X191500Y73042D01*
Y74500D01*
D02*
G37*
G36*
X179000Y71958D02*
Y70500D01*
X180458D01*
X180195Y71133D01*
X179633Y71696D01*
X179000Y71958D01*
D02*
G37*
G36*
X178000D02*
X177367Y71696D01*
X176804Y71133D01*
X176542Y70500D01*
X178000D01*
Y71958D01*
D02*
G37*
G36*
X176807Y63153D02*
X173354D01*
Y60882D01*
X176807D01*
Y63153D01*
D02*
G37*
G36*
X172354D02*
X168902D01*
Y60882D01*
X172354D01*
Y63153D01*
D02*
G37*
G36*
X180000Y61458D02*
Y60000D01*
X181458D01*
X181195Y60633D01*
X180633Y61195D01*
X180000Y61458D01*
D02*
G37*
G36*
X179000D02*
X178367Y61195D01*
X177805Y60633D01*
X177542Y60000D01*
X179000D01*
Y61458D01*
D02*
G37*
G36*
X176807Y59882D02*
X173354D01*
Y57610D01*
X176807D01*
Y59882D01*
D02*
G37*
G36*
X172354D02*
X168902D01*
Y57610D01*
X172354D01*
Y59882D01*
D02*
G37*
G36*
X181458Y59000D02*
X180000D01*
Y57542D01*
X180633Y57805D01*
X181195Y58367D01*
X181458Y59000D01*
D02*
G37*
G36*
X179000D02*
X177542D01*
X177805Y58367D01*
X178367Y57805D01*
X179000Y57542D01*
Y59000D01*
D02*
G37*
G36*
X176807Y50161D02*
X168902D01*
Y44618D01*
X176807D01*
Y45860D01*
X180197D01*
X180367Y45690D01*
X181102Y45386D01*
X181898D01*
X182633Y45690D01*
X183195Y46253D01*
X183500Y46988D01*
Y47784D01*
X183195Y48519D01*
X182633Y49081D01*
X181898Y49386D01*
X181102D01*
X180367Y49081D01*
X180205Y48919D01*
X176807D01*
Y50161D01*
D02*
G37*
G36*
X51673Y28827D02*
X49500D01*
Y26850D01*
X51673D01*
Y28827D01*
D02*
G37*
G36*
X48500D02*
X46327D01*
Y26850D01*
X48500D01*
Y28827D01*
D02*
G37*
G36*
X42815Y28949D02*
X40740D01*
Y26677D01*
X42815D01*
Y28949D01*
D02*
G37*
G36*
X41000Y25958D02*
Y24500D01*
X42458D01*
X42195Y25133D01*
X41633Y25695D01*
X41000Y25958D01*
D02*
G37*
G36*
X40000D02*
X39367Y25695D01*
X38805Y25133D01*
X38542Y24500D01*
X40000D01*
Y25958D01*
D02*
G37*
G36*
X42458Y23500D02*
X41000D01*
Y22042D01*
X41633Y22305D01*
X42195Y22867D01*
X42458Y23500D01*
D02*
G37*
G36*
X40000D02*
X38542D01*
X38805Y22867D01*
X39367Y22305D01*
X40000Y22042D01*
Y23500D01*
D02*
G37*
G36*
X59546Y15535D02*
X59500D01*
Y11886D01*
X63150D01*
Y11932D01*
X62867Y12988D01*
X62321Y13934D01*
X61548Y14706D01*
X60602Y15253D01*
X59546Y15535D01*
D02*
G37*
%LPD*%
D10*
X214142Y87087D02*
D03*
Y122913D02*
D03*
X231858Y87087D02*
D03*
Y122913D02*
D03*
X214142Y22472D02*
D03*
Y58299D02*
D03*
X231858Y22472D02*
D03*
Y58299D02*
D03*
D11*
X109252Y58748D02*
D03*
X102028D02*
D03*
X94803D02*
D03*
X109252Y65972D02*
D03*
X102028D02*
D03*
X94803D02*
D03*
X109252Y73197D02*
D03*
X102028D02*
D03*
X94803D02*
D03*
D12*
X128465Y26563D02*
D03*
X123465D02*
D03*
X118465D02*
D03*
X113465D02*
D03*
X108465D02*
D03*
X103465D02*
D03*
X98465D02*
D03*
X93465D02*
D03*
X88465D02*
D03*
X83465D02*
D03*
D13*
X139429Y95500D02*
D03*
Y90500D02*
D03*
Y85500D02*
D03*
Y80500D02*
D03*
Y75500D02*
D03*
Y70500D02*
D03*
Y65500D02*
D03*
Y60500D02*
D03*
Y55500D02*
D03*
Y50500D02*
D03*
Y45500D02*
D03*
Y40500D02*
D03*
Y35500D02*
D03*
Y30500D02*
D03*
X72500D02*
D03*
Y35500D02*
D03*
Y40500D02*
D03*
Y45500D02*
D03*
Y50500D02*
D03*
Y55500D02*
D03*
Y60500D02*
D03*
Y65500D02*
D03*
Y70500D02*
D03*
Y75500D02*
D03*
Y80500D02*
D03*
Y85500D02*
D03*
Y90500D02*
D03*
Y95500D02*
D03*
D14*
X162500Y130909D02*
D03*
X167500D02*
D03*
X172500D02*
D03*
X177500D02*
D03*
X182500D02*
D03*
X187500D02*
D03*
X192500D02*
D03*
X197500D02*
D03*
Y108862D02*
D03*
X192500D02*
D03*
X187500D02*
D03*
X182500D02*
D03*
X177500D02*
D03*
X172500D02*
D03*
X167500D02*
D03*
X162500D02*
D03*
D15*
X14059Y38000D02*
D03*
X8941D02*
D03*
Y28000D02*
D03*
X14059D02*
D03*
X170500Y76386D02*
D03*
X165382D02*
D03*
X165441Y84386D02*
D03*
X170559D02*
D03*
X167559Y101386D02*
D03*
X162441D02*
D03*
D16*
X37500Y77500D02*
D03*
D17*
X46555Y54272D02*
D03*
X37500D02*
D03*
X28445D02*
D03*
D18*
X153500Y128146D02*
D03*
Y133854D02*
D03*
X197500Y86740D02*
D03*
Y81031D02*
D03*
X61000Y100031D02*
D03*
Y105740D02*
D03*
X50500Y100031D02*
D03*
Y105740D02*
D03*
D19*
X188028Y6386D02*
D03*
X178972D02*
D03*
D20*
X178382Y17429D02*
D03*
X188618D02*
D03*
X180941D02*
D03*
X183500D02*
D03*
X186059D02*
D03*
D21*
X201000Y51516D02*
D03*
Y56255D02*
D03*
X57500Y66625D02*
D03*
Y61886D02*
D03*
X17000Y66625D02*
D03*
Y61886D02*
D03*
D22*
X172854Y47390D02*
D03*
Y60382D02*
D03*
X192146D02*
D03*
Y47390D02*
D03*
D23*
X178500Y26496D02*
D03*
Y35276D02*
D03*
D24*
X178465Y78606D02*
D03*
Y76047D02*
D03*
X186535D02*
D03*
Y78606D02*
D03*
Y81165D02*
D03*
Y83724D02*
D03*
X178465D02*
D03*
Y81165D02*
D03*
D25*
X49000Y29327D02*
D03*
Y34445D02*
D03*
X55500D02*
D03*
Y29327D02*
D03*
X26000Y100827D02*
D03*
Y105945D02*
D03*
X153500Y116827D02*
D03*
Y121945D02*
D03*
X27000Y122445D02*
D03*
Y117327D02*
D03*
D26*
X32760Y29449D02*
D03*
X40240D02*
D03*
X36500Y37323D02*
D03*
D27*
X33563Y108126D02*
D03*
Y100646D02*
D03*
X41437Y104386D02*
D03*
X34063Y123626D02*
D03*
Y116146D02*
D03*
X41937Y119886D02*
D03*
D28*
X167854Y138386D02*
D03*
X162146D02*
D03*
D29*
X30500Y66000D02*
X37500Y59000D01*
Y54272D02*
Y59000D01*
X21827Y119958D02*
Y121000D01*
Y119958D02*
X24413Y117372D01*
X151000Y62500D02*
X151641Y61859D01*
Y32141D02*
Y61859D01*
X17827Y123813D02*
X43514Y149500D01*
X66814D02*
X70500Y153186D01*
X43514Y149500D02*
X66814D01*
X17827Y83359D02*
X40800Y60386D01*
X17827Y83359D02*
Y123813D01*
X73117Y86213D02*
X74330Y85000D01*
X135803Y31213D02*
X140046D01*
X153000Y128031D02*
X159713D01*
X127327Y91213D02*
X140046D01*
X55500Y25386D02*
Y29327D01*
Y19886D02*
Y25386D01*
X68673Y91213D02*
X73117D01*
X135195Y56081D02*
X139913D01*
X65327Y56213D02*
X73117D01*
X104000Y6386D02*
X109000Y11386D01*
X54500Y6386D02*
X104000D01*
X54306Y6580D02*
X54500Y6386D01*
X54306Y6580D02*
Y18691D01*
X55500Y19886D01*
X129500Y1886D02*
X139000Y11386D01*
X47000Y1886D02*
X129500D01*
X27185Y21701D02*
X47000Y1886D01*
X27185Y21701D02*
Y35221D01*
X28445Y36481D01*
Y54272D01*
X112000Y4386D02*
X119000Y11386D01*
X50885Y4386D02*
X112000D01*
X29685Y25586D02*
X50885Y4386D01*
X29685Y25586D02*
Y32786D01*
X31785Y34886D01*
X36500D01*
Y37323D01*
X48000Y38886D02*
X65327Y56213D01*
X45000Y38886D02*
X48000D01*
X40800Y43086D02*
X45000Y38886D01*
X40800Y43086D02*
Y60386D01*
X70500Y153186D02*
Y166986D01*
X74400Y170886D01*
X186410D01*
X199579Y157717D01*
X182500Y97500D02*
Y108862D01*
X181500Y96500D02*
X182500Y97500D01*
X220700Y53251D02*
Y72286D01*
X220114Y52665D02*
X220700Y53251D01*
X214780Y52665D02*
X220114D01*
X183500Y21386D02*
X214780Y52665D01*
X183500Y17429D02*
Y21386D01*
X180941Y17429D02*
Y22927D01*
X207600Y49586D01*
Y75386D01*
X187500Y95486D02*
Y108862D01*
X27000Y114472D02*
Y117327D01*
Y114472D02*
X29075Y112397D01*
X34760D01*
X36835Y110322D01*
Y103720D02*
Y110322D01*
X33760Y100646D02*
X36835Y103720D01*
X33563Y100646D02*
X33760D01*
X26955Y117372D02*
X27000Y117327D01*
X24413Y117372D02*
X26955D01*
X181850Y139986D02*
X183500D01*
X177500Y135636D02*
X181850Y139986D01*
X177500Y130909D02*
Y135636D01*
X74330Y85000D02*
X88000D01*
X41937Y119886D02*
X46631D01*
X47250Y119502D01*
X214000Y31000D02*
X214142Y30608D01*
Y22472D02*
Y30608D01*
X102028Y58748D02*
Y65972D01*
X184980Y78606D02*
X186535D01*
X184000Y79586D02*
X184980Y78606D01*
X184000Y79586D02*
Y82724D01*
X185000Y83724D01*
X186535D01*
X213642Y81386D02*
Y86972D01*
X211642Y79386D02*
X213642Y81386D01*
X205600Y79386D02*
X211642D01*
X203600Y77386D02*
X205600Y79386D01*
X203600Y64486D02*
Y77386D01*
X191114Y52000D02*
X203600Y64486D01*
X41437Y108704D02*
X43481Y110748D01*
X41437Y104386D02*
Y108704D01*
X128500Y38516D02*
X135803Y31213D01*
X43481Y110748D02*
X43663Y110566D01*
X159713Y128031D02*
X162859Y124886D01*
X175500D01*
X177500Y122886D01*
Y108862D02*
Y122886D01*
X27000Y122445D02*
X27976Y123421D01*
X28554D01*
X28759Y123626D01*
X34063D01*
X23413Y100827D02*
X26000D01*
X22827Y101413D02*
X23413Y100827D01*
X22827Y101413D02*
Y108043D01*
X23705Y108921D01*
X28295D01*
X29090Y108126D01*
X33563D01*
X32760Y29449D02*
Y29646D01*
X33835Y30720D01*
X36044D01*
X39768Y34445D01*
X49000D01*
X55500D01*
X167530Y101415D02*
X167559Y101386D01*
X167530Y101415D02*
Y108833D01*
X167500Y108862D02*
X167530Y108833D01*
X153500Y121945D02*
X168941D01*
X172500Y118386D01*
Y108862D02*
Y118386D01*
X73117Y61213D02*
X78800D01*
X86500Y68913D01*
Y76586D01*
X95300Y85386D01*
X112200D01*
X140046Y61213D02*
X144000D01*
X145800Y59413D01*
Y46086D02*
Y59413D01*
Y46086D02*
X147500Y44386D01*
X26000Y105945D02*
X26197D01*
X30291Y101850D01*
Y98450D02*
Y101850D01*
Y98450D02*
X31855Y96886D01*
X41500D01*
X44709Y100094D01*
Y106007D01*
X47500Y108799D01*
Y113558D01*
X45724Y115334D02*
X47500Y113558D01*
X34875Y115334D02*
X45724D01*
X34063Y116146D02*
X34875Y115334D01*
X172500Y130909D02*
Y143286D01*
X170500Y145286D02*
X172500Y143286D01*
X54800Y121186D02*
Y145286D01*
X49000Y115386D02*
X54800Y121186D01*
X45724Y115386D02*
X49000D01*
X139429Y75500D02*
X145599D01*
X155500Y85401D01*
Y96386D01*
X160050Y100936D01*
X161991D01*
X162441Y101386D01*
X122500Y86386D02*
X127327Y91213D01*
X122500Y53686D02*
Y86386D01*
Y53686D02*
X124500Y51686D01*
Y35729D02*
Y51686D01*
Y35729D02*
X125086Y35143D01*
X127714D01*
X133500Y29358D01*
Y22386D02*
Y29358D01*
X131150Y20035D02*
X133500Y22386D01*
X60850Y20035D02*
X131150D01*
X55500Y25386D02*
X60850Y20035D01*
X162146Y138386D02*
X162500Y138031D01*
Y130909D02*
Y138031D01*
X162146Y138386D02*
Y151106D01*
X164413Y153373D01*
X176171D01*
X179860Y157061D01*
X197500Y86740D02*
Y90386D01*
X196500Y91386D02*
X197500Y90386D01*
X166027Y91386D02*
X196500D01*
X165441Y90800D02*
X166027Y91386D01*
X165441Y84386D02*
Y90800D01*
X197165Y86405D02*
X197500Y86740D01*
X194519Y86405D02*
X197165D01*
X189280Y81165D02*
X194519Y86405D01*
X189280Y77556D02*
Y81165D01*
X186724Y76236D02*
X187960D01*
X186535Y81165D02*
X189280D01*
X187960Y76236D02*
X189280Y77556D01*
X186535Y76047D02*
X186724Y76236D01*
X183874Y76047D02*
X186535D01*
X181315Y78606D02*
X183874Y76047D01*
X178465Y78606D02*
X181315D01*
X175933D02*
X178465D01*
X173713Y76386D02*
X175933Y78606D01*
X170500Y76386D02*
X173713D01*
X57500Y61886D02*
X58091Y62477D01*
X59371D01*
X64000Y67106D01*
Y90886D01*
X66500Y93386D01*
X170500Y76386D02*
Y76583D01*
X66500Y93386D02*
X68673Y91213D01*
X66500Y93386D02*
Y101386D01*
Y133295D02*
X90657Y157453D01*
X66500Y101386D02*
Y133295D01*
X65146Y100031D02*
X66500Y101386D01*
X61000Y100031D02*
X65146D01*
X139429Y80500D02*
X147771D01*
X153500Y86229D01*
Y116827D01*
X73117Y51213D02*
X82800D01*
X89000Y11386D02*
X95650Y18035D01*
X137535D01*
X151641Y32141D01*
X171220Y83724D02*
X178465D01*
X140046Y86213D02*
X147827D01*
X169691Y85253D02*
X170559Y84386D01*
X169691Y85253D02*
Y88694D01*
X165382Y76386D02*
X165473Y76477D01*
Y78973D01*
X167665Y81165D01*
X178465D01*
X165382Y73068D02*
Y76386D01*
Y73068D02*
X172225Y66225D01*
X190692D01*
X191853Y67386D01*
Y69139D01*
X209300Y86586D01*
Y147753D01*
X219264Y157717D01*
X153787Y71213D02*
X166974D01*
X140046D02*
X153787D01*
X155000Y70000D01*
Y32500D02*
Y70000D01*
X138535Y16035D02*
X155000Y32500D01*
X103650Y16035D02*
X138535D01*
X99000Y11386D02*
X103650Y16035D01*
X181496Y47390D02*
X181500Y47386D01*
X172854Y47390D02*
X181496D01*
X139913Y56081D02*
X140046Y56213D01*
X131651Y52537D02*
X135195Y56081D01*
X131651Y49181D02*
Y52537D01*
X13164Y28895D02*
X14059Y28000D01*
X13164Y28895D02*
Y30376D01*
X8941Y34599D02*
X13164Y30376D01*
X17713Y34599D02*
X20500Y37386D01*
X63308Y46500D02*
X63771D01*
X64771Y45500D01*
X72500D01*
X8941Y34599D02*
Y38000D01*
Y34599D02*
X17713D01*
X20500Y37386D02*
Y49586D01*
X72500Y40500D02*
X82200D01*
X86900Y45200D01*
Y53386D01*
X83000Y57286D02*
X86900Y53386D01*
X80000Y57286D02*
X83000D01*
D30*
X205500Y87912D02*
Y131421D01*
X179860Y157061D02*
X205500Y131421D01*
X14000Y130186D02*
X35814Y152000D01*
X60468D02*
X65921Y157453D01*
X35814Y152000D02*
X60468D01*
X14000Y76986D02*
X30974Y60012D01*
X32217Y58769D02*
Y58840D01*
X14000Y76986D02*
Y130186D01*
X31045Y60012D02*
X32217Y58840D01*
Y58769D02*
X32900Y58086D01*
X30974Y60012D02*
X31045D01*
X139000Y167886D02*
X169724D01*
X101091D02*
X139000D01*
X32900Y43686D02*
Y58086D01*
Y43686D02*
X36500Y40086D01*
Y37323D02*
Y40086D01*
X8805Y27864D02*
X8941Y28000D01*
X5636Y27864D02*
X8805D01*
X3500Y30000D02*
X5636Y27864D01*
X3500Y30000D02*
Y40000D01*
X17000Y53500D01*
Y61886D01*
X12500D02*
X17000D01*
X8500Y65886D02*
X12500Y61886D01*
X8500Y65886D02*
Y156214D01*
X9672Y157386D01*
X21657D01*
X17000Y61886D02*
X17007D01*
X17599Y61294D01*
Y61287D02*
Y61294D01*
Y61287D02*
X24614Y54272D01*
X28445D01*
X21657Y157386D02*
X28772Y164500D01*
X49032D01*
X56079Y157453D01*
X139000Y11386D02*
X162890Y35276D01*
X178500D01*
X178894D01*
X179134Y35516D01*
Y35909D01*
X189843Y46618D01*
X191374D01*
X192146Y47390D01*
X192917Y48161D01*
X197638D01*
X200993Y51516D01*
X201000D01*
X204328Y86740D02*
X205500Y87912D01*
X197500Y86740D02*
X204328D01*
X46555Y41441D02*
Y54272D01*
X46832Y54548D01*
X50155D01*
X57493Y61886D01*
X57500D01*
X50500Y100031D02*
X61000D01*
X135657Y157453D02*
Y164543D01*
X139000Y167886D01*
X90657Y157453D02*
X101091Y167886D01*
X169724D02*
X179894Y157717D01*
X178269Y26265D02*
X178500Y26496D01*
X178269Y20886D02*
Y26265D01*
D31*
X135657Y157453D02*
D03*
X229106Y157717D02*
D03*
X90657Y157453D02*
D03*
D32*
X145500D02*
D03*
X155343D02*
D03*
X219264Y157717D02*
D03*
X209421D02*
D03*
X199579D02*
D03*
X189736D02*
D03*
X179894D02*
D03*
X110343Y157453D02*
D03*
X100500D02*
D03*
D33*
X56079D02*
D03*
X21657Y157386D02*
D03*
D34*
X65921Y157453D02*
D03*
X31500Y157386D02*
D03*
D35*
X192260Y18413D02*
D03*
X174740D02*
D03*
D36*
X79000Y11386D02*
D03*
X89000D02*
D03*
X109000D02*
D03*
X129000D02*
D03*
X139000D02*
D03*
X119000D02*
D03*
X99000D02*
D03*
X69000D02*
D03*
X59000D02*
D03*
D37*
X149000D02*
D03*
D38*
X37500Y45500D02*
D03*
X60000Y114000D02*
D03*
X82000Y95000D02*
D03*
X169691Y88694D02*
D03*
X191114Y52000D02*
D03*
X46555Y41441D02*
D03*
X63308Y46500D02*
D03*
X43572Y110657D02*
D03*
X46941Y119694D02*
D03*
X21827Y121000D02*
D03*
X151000Y62500D02*
D03*
X179500Y59500D02*
D03*
X178500Y70000D02*
D03*
X189500Y87000D02*
D03*
X192000Y75000D02*
D03*
X167000Y150000D02*
D03*
X145500Y131500D02*
D03*
X14000Y43500D02*
D03*
X30500Y66000D02*
D03*
X40500Y69500D02*
D03*
Y24000D02*
D03*
X181500Y96500D02*
D03*
X220700Y72286D02*
D03*
X207600Y75386D02*
D03*
X187500Y95486D02*
D03*
X183500Y139986D02*
D03*
X88000Y85000D02*
D03*
X214000Y31000D02*
D03*
X128500Y38516D02*
D03*
X112200Y85386D02*
D03*
X147500Y44386D02*
D03*
X170500Y145286D02*
D03*
X54800D02*
D03*
X82800Y51213D02*
D03*
X147827Y86213D02*
D03*
X181500Y47386D02*
D03*
X131651Y49181D02*
D03*
X20500Y49586D02*
D03*
X80000Y57286D02*
D03*
D39*
X8000Y8000D02*
D03*
X253500D02*
D03*
Y166500D02*
D03*
%TF.MD5,923fba8d32c9b4d5132ffb12c228c09d*%
M02*
