M48
;Layer_Color=9474304
;FILE_FORMAT=2:4
INCH,TZ
;TYPE=PLATED
T1F00S00C0.0150
T4F00S00C0.0354
T5F00S00C0.0394
T6F00S00C0.0433
T7F00S00C0.1250
%
T01
X21400Y3100
X4050Y2400
X4656Y4144
X3750Y4550
X2050Y4959
X1400Y4350
X3050Y6600
X4050Y6950
X4357Y11066
X4694Y11969
X2183Y12100
X5480Y14529
X6000Y11400
X8200Y9500
X8800Y8500
X11220Y8539
X14783Y8621
X16969Y8869
X18150Y9650
X18750Y9549
X18950Y8700
X19200Y7500
X20760Y7539
X17850Y7000
X17950Y5950
X18150Y4739
X19111Y5200
X15100Y6250
X14750Y4439
X13165Y4918
X12850Y3852
X8280Y5121
X8000Y5729
X6331Y4650
X14550Y13150
X17050Y14529
X16700Y15000
X18350Y13999
X22070Y7229
T04
X9066Y15745
X10050
X11034
X13566
X14550
X15534
X17989Y15772
X18974
X19958
X20942
X21926
X22911
T05
X2166Y15739
X3150
X5608Y15745
X6592
T06
X5900Y1139
X6900
X7900
X8900
X9900
X10900
X11900
X12900
X13900
X14900
T07
X25350Y800
X800
X25350Y16650
M30
